# Blender 3.6.2
# www.blender.org
mtllib DeceBalus_Mover_Edge.mtl
o DeceBalus_Mover_Edge
v -0.506696 -0.161871 0.061418
v -0.506696 0.161871 0.061418
v -0.506696 -0.161871 -0.061418
v -0.506696 0.161871 -0.061418
v 0.506696 -0.161871 0.061418
v 0.506696 0.161871 0.061418
v 0.506696 -0.161871 -0.061418
v 0.506696 0.161871 -0.061418
vn -1.0000 -0.0000 -0.0000
vn -0.0000 -0.0000 -1.0000
vn 1.0000 -0.0000 -0.0000
vn -0.0000 -0.0000 1.0000
vn -0.0000 -1.0000 -0.0000
vn -0.0000 1.0000 -0.0000
vt 0.646861 0.928604
vt 0.646861 0.864765
vt 0.657467 0.864765
vt 0.657467 0.928604
vt 0.657761 0.871959
vt 0.646574 0.871959
vt 0.646574 0.860771
vt 0.657761 0.860771
vt 0.647327 0.860641
vt 0.657001 0.860641
vt 0.657001 0.870466
vt 0.647327 0.870466
vt 0.647116 0.945054
vt 0.656804 0.945054
vt 0.656804 0.935489
vt 0.647116 0.935489
vt 0.648695 0.953836
vt 0.658779 0.953836
vt 0.658779 0.983100
vt 0.648695 0.983100
vt 0.648653 0.871238
vt 0.655509 0.871238
vt 0.655509 0.878214
vt 0.648653 0.878214
s 0
usemtl Material.001
f 1/1/1 2/2/1 4/3/1 3/4/1
f 3/5/2 4/6/2 8/7/2 7/8/2
f 7/9/3 8/10/3 6/11/3 5/12/3
f 5/13/4 6/14/4 2/15/4 1/16/4
f 3/17/5 7/18/5 5/19/5 1/20/5
f 8/21/6 4/22/6 2/23/6 6/24/6
