# Blender 3.6.2
# www.blender.org
mtllib DeceBalus_Normal_Tile.mtl
o DeceBalus_Normal_Tile
v -0.500000 -0.100000 0.500000
v -0.500000 0.100000 0.500000
v -0.500000 -0.100000 -0.500000
v -0.500000 0.100000 -0.500000
v 0.500000 -0.100000 0.500000
v 0.500000 0.100000 0.500000
v 0.500000 -0.100000 -0.500000
v 0.500000 0.100000 -0.500000
vn -1.0000 -0.0000 -0.0000
vn -0.0000 -0.0000 -1.0000
vn 1.0000 -0.0000 -0.0000
vn -0.0000 -0.0000 1.0000
vn -0.0000 -1.0000 -0.0000
vn -0.0000 1.0000 -0.0000
vt 0.001348 0.856815
vt 0.124900 0.856815
vt 0.124900 0.870373
vt 0.001348 0.870373
vt 0.001946 0.856052
vt 0.127078 0.856052
vt 0.127078 0.870684
vt 0.001946 0.870684
vt 0.001965 0.870678
vt 0.125526 0.870678
vt 0.125526 0.856098
vt 0.001965 0.856098
vt 0.001218 0.870128
vt 0.126538 0.870128
vt 0.126538 0.855973
vt 0.001218 0.855973
vt 0.000971 0.871623
vt 0.128567 0.871623
vt 0.128567 0.999845
vt 0.000971 0.999845
vt 0.000441 0.871427
vt 0.128123 0.871427
vt 0.128123 0.999544
vt 0.000441 0.999544
s 0
usemtl Material.002
f 1/1/1 2/2/1 4/3/1 3/4/1
f 3/5/2 4/6/2 8/7/2 7/8/2
f 7/9/3 8/10/3 6/11/3 5/12/3
f 5/13/4 6/14/4 2/15/4 1/16/4
f 3/17/5 7/18/5 5/19/5 1/20/5
f 8/21/6 4/22/6 2/23/6 6/24/6
