# Blender 3.6.2
# www.blender.org
mtllib DeceBalus_Jump_Tile.mtl
o Cube.003
v -0.500000 -0.100000 0.500000
v -0.500000 0.100000 0.500000
v -0.500000 -0.100000 -0.500000
v -0.500000 0.100000 -0.500000
v 0.500000 -0.100000 0.500000
v 0.500000 0.100000 0.500000
v 0.500000 -0.100000 -0.500000
v 0.500000 0.100000 -0.500000
vn -1.0000 -0.0000 -0.0000
vn -0.0000 -0.0000 -1.0000
vn 1.0000 -0.0000 -0.0000
vn -0.0000 -0.0000 1.0000
vn -0.0000 -1.0000 -0.0000
vn -0.0000 1.0000 -0.0000
vt 0.130325 0.856815
vt 0.256431 0.856815
vt 0.256431 0.870373
vt 0.130325 0.870373
vt 0.131829 0.856052
vt 0.256961 0.856052
vt 0.256961 0.870684
vt 0.131829 0.870684
vt 0.130470 0.870998
vt 0.256787 0.870998
vt 0.256787 0.855779
vt 0.130470 0.855779
vt 0.130896 0.870128
vt 0.256215 0.870128
vt 0.256215 0.855973
vt 0.130896 0.855973
vt 0.129803 0.871623
vt 0.257399 0.871623
vt 0.257399 0.999845
vt 0.129803 0.999845
vt 0.130354 0.871427
vt 0.256706 0.871427
vt 0.256706 0.999544
vt 0.130354 0.999544
s 0
usemtl Material.002
f 1/1/1 2/2/1 4/3/1 3/4/1
f 3/5/2 4/6/2 8/7/2 7/8/2
f 7/9/3 8/10/3 6/11/3 5/12/3
f 5/13/4 6/14/4 2/15/4 1/16/4
f 3/17/5 7/18/5 5/19/5 1/20/5
f 8/21/6 4/22/6 2/23/6 6/24/6
