# Blender 3.6.2
# www.blender.org
mtllib DeceBalus_Tree_Stem.mtl
o Cube.010
v -0.100000 0.050000 0.100000
v -0.100000 0.550000 0.100000
v -0.100000 0.050000 -0.100000
v -0.100000 0.550000 -0.100000
v 0.100000 0.050000 0.100000
v 0.100000 0.550000 0.100000
v 0.100000 0.050000 -0.100000
v 0.100000 0.550000 -0.100000
vn -1.0000 -0.0000 -0.0000
vn -0.0000 -0.0000 -1.0000
vn 1.0000 -0.0000 -0.0000
vn -0.0000 -0.0000 1.0000
vn -0.0000 -1.0000 -0.0000
vn -0.0000 1.0000 -0.0000
vt 0.252645 0.033948
vt 0.252645 0.219136
vt 0.002645 0.219136
vt 0.002645 0.033948
vt 0.500168 0.036986
vt 0.500168 0.216772
vt 0.250168 0.216772
vt 0.250168 0.036986
vt 0.254585 0.038563
vt 0.254585 0.218680
vt 0.004585 0.218680
vt 0.004585 0.038563
vt 0.502012 0.034767
vt 0.502012 0.220698
vt 0.252012 0.220698
vt 0.252012 0.034767
vt 0.509914 0.767629
vt 0.738473 0.767629
vt 0.738473 0.989857
vt 0.509914 0.989857
vt 0.504953 0.757141
vt 0.734777 0.757141
vt 0.734777 0.990659
vt 0.504953 0.990659
s 0
usemtl Material
f 1/1/1 2/2/1 4/3/1 3/4/1
f 3/5/2 4/6/2 8/7/2 7/8/2
f 7/9/3 8/10/3 6/11/3 5/12/3
f 5/13/4 6/14/4 2/15/4 1/16/4
f 3/17/5 7/18/5 5/19/5 1/20/5
f 8/21/6 4/22/6 2/23/6 6/24/6
