# Blender 3.6.2
# www.blender.org
mtllib DeceBalus_Tree_Part1.mtl
o Cube.003
v -0.400000 0.400000 0.400000
v -0.400000 0.800000 0.400000
v -0.400000 0.400000 -0.400000
v -0.400000 0.800000 -0.400000
v 0.400000 0.400000 0.400000
v 0.400000 0.800000 0.400000
v 0.400000 0.400000 -0.400000
v 0.400000 0.800000 -0.400000
vn -1.0000 -0.0000 -0.0000
vn -0.0000 -0.0000 -1.0000
vn 1.0000 -0.0000 -0.0000
vn -0.0000 -0.0000 1.0000
vn -0.0000 -1.0000 -0.0000
vn -0.0000 1.0000 -0.0000
vt 0.251143 0.677319
vt 0.492895 0.677319
vt 0.492895 0.735404
vt 0.251143 0.735404
vt 0.252753 0.675643
vt 0.492313 0.675643
vt 0.492313 0.734883
vt 0.252753 0.734883
vt 0.255713 0.675192
vt 0.489728 0.675192
vt 0.489728 0.737987
vt 0.255713 0.737987
vt 0.252822 0.679732
vt 0.491215 0.679732
vt 0.491215 0.735752
vt 0.252822 0.735752
vt 0.254308 0.675990
vt 0.490475 0.675990
vt 0.490475 0.733691
vt 0.254308 0.733691
vt 0.250728 0.677077
vt 0.491665 0.677077
vt 0.491665 0.736368
vt 0.250728 0.736368
s 0
usemtl Material
f 1/1/1 2/2/1 4/3/1 3/4/1
f 3/5/2 4/6/2 8/7/2 7/8/2
f 7/9/3 8/10/3 6/11/3 5/12/3
f 5/13/4 6/14/4 2/15/4 1/16/4
f 3/17/5 7/18/5 5/19/5 1/20/5
f 8/21/6 4/22/6 2/23/6 6/24/6
