# Blender 3.6.2
# www.blender.org
mtllib DeceBalus_Slasher_Slasher_Right.mtl
o Cube.113
v -2.291384 0.400197 -0.099803
v 0.376784 0.400197 -0.099803
v -2.291384 0.400197 0.099803
v 0.376784 0.400197 0.099803
v -2.291384 0.599803 -0.099803
v 0.376784 0.599803 -0.099803
v -2.291384 0.599803 0.099803
v 0.376784 0.599803 0.099803
v -2.291384 0.500000 0.099803
v 0.376784 0.500000 0.099803
v -2.291384 0.500000 -0.099803
v 0.376784 0.500000 -0.099803
v -2.291384 0.450098 0.099803
v 0.376784 0.450098 -0.099803
v 0.376784 0.450098 0.099803
v -2.291384 0.450098 -0.099803
v 0.376784 0.549902 0.099803
v -2.291384 0.549902 -0.099803
v -2.291384 0.549902 0.099803
v 0.376784 0.549902 -0.099803
v -0.957300 0.599803 0.099803
v -0.957300 0.599803 -0.099803
v -0.957300 0.549902 -0.099803
v -0.957300 0.549902 0.099803
v -0.290258 0.599803 0.099803
v -0.290258 0.599803 -0.099803
v -0.290258 0.549902 -0.099803
v -0.290258 0.549902 0.099803
v 0.043263 0.599803 0.099803
v 0.043263 0.599803 -0.099803
v 0.043263 0.549902 -0.099803
v 0.043263 0.549902 0.099803
v 0.210023 0.599803 0.099803
v 0.210023 0.599803 -0.099803
v 0.210023 0.549902 -0.099803
v 0.210023 0.549902 0.099803
v 0.293403 0.599803 0.099803
v 0.293403 0.599803 -0.099803
v 0.293403 0.549902 -0.099803
v 0.293403 0.549902 0.099803
v -0.957300 0.400197 -0.099803
v -0.957300 0.400197 0.099803
v -0.957300 0.450098 0.099803
v -0.957300 0.450098 -0.099803
v -0.290258 0.400197 -0.099803
v -0.290258 0.400197 0.099803
v -0.290258 0.450098 0.099803
v -0.290258 0.450098 -0.099803
v 0.043263 0.400197 -0.099803
v 0.043263 0.400197 0.099803
v 0.043263 0.450098 0.099803
v 0.043263 0.450098 -0.099803
v 0.210023 0.400197 -0.099803
v 0.210023 0.400197 0.099803
v 0.210023 0.450098 0.099803
v 0.210023 0.450098 -0.099803
v -2.343558 0.549902 0.099803
v -2.343558 0.500000 0.099803
v -2.343558 0.450098 -0.099803
v -2.343558 0.500000 -0.099803
v -2.343558 0.450098 0.099803
v -2.343558 0.549902 -0.099803
v -2.343558 0.475049 -0.099803
v -2.317471 0.450098 -0.099803
v -2.304427 0.450098 -0.099803
v -2.343558 0.487525 -0.099803
v -2.343558 0.493762 -0.099803
v -2.310949 0.450098 -0.099803
v -2.307688 0.450098 -0.099803
v -2.309319 0.450098 -0.099803
v -2.314210 0.450098 -0.099803
v -2.315840 0.450098 -0.099803
v -2.306684 0.549902 -0.099803
v -2.307045 0.450098 -0.099803
vn -0.0000 -1.0000 -0.0000
vn -0.0000 -0.0000 1.0000
vn -0.0000 1.0000 -0.0000
vn -0.0000 -0.0000 -1.0000
vn -1.0000 -0.0000 -0.0000
vn 1.0000 -0.0000 -0.0000
vn 0.6912 0.7227 -0.0000
vn -0.6912 0.7227 -0.0000
vt 0.721710 0.746299
vt 0.735991 0.746299
vt 0.735991 0.996299
vt 0.721710 0.996299
vt 0.726439 0.934190
vt 0.733462 0.934190
vt 0.733462 0.996689
vt 0.726439 0.996689
vt 0.717539 0.744783
vt 0.724012 0.744783
vt 0.724012 0.994783
vt 0.717539 0.994783
vt 0.304946 0.072854
vt 0.291839 0.072854
vt 0.291839 0.033146
vt 0.304946 0.033146
vt 0.669682 0.746366
vt 0.721233 0.746366
vt 0.721233 0.996366
vt 0.669682 0.996366
vt 0.673459 0.747216
vt 0.725830 0.747216
vt 0.725830 0.997216
vt 0.673459 0.997216
vt 0.508731 0.809190
vt 0.621096 0.809190
vt 0.677279 0.809190
vt 0.705370 0.809190
vt 0.719416 0.809190
vt 0.733462 0.809190
vt 0.733462 0.871690
vt 0.719416 0.934190
vt 0.705370 0.934190
vt 0.677279 0.934190
vt 0.621096 0.934190
vt 0.508731 0.934190
vt 0.508731 0.871690
vt 0.719416 0.746689
vt 0.733462 0.746689
vt 0.515027 0.746366
vt 0.566579 0.746366
vt 0.566579 0.996366
vt 0.515027 0.996366
vt 0.516348 0.747216
vt 0.568718 0.747216
vt 0.568718 0.997216
vt 0.516348 0.997216
vt 0.514946 0.812500
vt 0.619801 0.812500
vt 0.672229 0.812500
vt 0.698443 0.812500
vt 0.711550 0.812500
vt 0.718104 0.812500
vt 0.724657 0.812500
vt 0.724657 0.875000
vt 0.724657 0.937500
vt 0.711550 0.937500
vt 0.698443 0.937500
vt 0.672229 0.937500
vt 0.619801 0.937500
vt 0.514946 0.937500
vt 0.514946 0.875000
vt 0.621089 0.747216
vt 0.621089 0.997216
vt 0.566579 0.996366
vt 0.516886 0.744783
vt 0.620449 0.744783
vt 0.620449 0.994783
vt 0.516886 0.994783
vt 0.621096 0.996690
vt 0.508731 0.996689
vt 0.672230 0.744783
vt 0.672230 0.994783
vt 0.677279 0.996689
vt 0.698121 0.744783
vt 0.698121 0.994783
vt 0.705370 0.996689
vt 0.711066 0.744783
vt 0.711066 0.994783
vt 0.719416 0.996689
vt 0.485448 0.034128
vt 0.492002 0.034128
vt 0.492002 0.071714
vt 0.485448 0.071714
vt 0.478894 0.071714
vt 0.478895 0.034128
vt 0.282290 0.000603
vt 0.387146 0.000603
vt 0.439574 0.000603
vt 0.465788 0.000603
vt 0.478895 0.000603
vt 0.478894 0.038189
vt 0.465788 0.038189
vt 0.439574 0.038189
vt 0.387146 0.038189
vt 0.282290 0.038189
vt 0.508731 0.746689
vt 0.621096 0.746689
vt 0.700314 0.965539
vt 0.613689 0.965539
vt 0.527065 0.965539
vt 0.527065 0.792291
vt 0.613689 0.792291
vt 0.700314 0.792291
vt 0.507497 0.746299
vt 0.621744 0.746299
vt 0.621744 0.996299
vt 0.507497 0.996299
vt 0.677279 0.746689
vt 0.678868 0.746299
vt 0.678868 0.996299
vt 0.705370 0.746689
vt 0.669682 0.996366
vt 0.707429 0.746299
vt 0.707429 0.996299
vt 0.500000 0.238656
vt 0.250000 0.238656
vt 0.000000 0.238656
vt 0.000000 0.040183
vt 0.250000 0.040183
vt 0.281250 0.040183
vt 0.312500 0.040183
vt 0.375000 0.040183
vt 0.500000 0.040183
vt 0.501550 0.040633
vt 0.396694 0.040633
vt 0.344267 0.040633
vt 0.318053 0.040633
vt 0.304946 0.040633
vt 0.304946 0.000926
vt 0.318053 0.000926
vt 0.344267 0.000926
vt 0.396694 0.000926
vt 0.501550 0.000926
vt 0.298364 0.032058
vt 0.393767 0.127461
vt 0.489170 0.032058
vt 0.307613 0.000287
vt 0.227196 0.000287
vt 0.247300 0.020391
vt 0.248557 0.021647
vt 0.249813 0.022904
vt 0.252326 0.025417
vt 0.253583 0.026673
vt 0.254839 0.027930
vt 0.255335 0.028426
vt 0.257352 0.030443
vt 0.267404 0.040495
vt 0.322419 0.038426
vt 0.311317 0.027323
vt 0.284561 0.000567
vt 0.360278 0.000567
vt 0.481460 0.038318
vt 0.371405 0.038318
vt 0.426432 0.093345
vt 0.531995 0.789479
vt 0.618507 0.789479
vt 0.705020 0.789479
vt 0.705020 0.835056
vt 0.705020 0.844202
vt 0.531995 0.842942
vt 0.192383 0.001388
vt 0.365408 0.001640
vt 0.365408 0.002091
vt 0.365408 0.003234
vt 0.365408 0.004377
vt 0.365408 0.006663
vt 0.365408 0.007806
vt 0.365408 0.008949
vt 0.365408 0.027235
vt 0.322152 0.027235
vt 0.300524 0.027235
vt 0.289710 0.027235
vt 0.278896 0.027235
vt 0.192383 0.027235
s 0
usemtl Material
f 53/1/1 2/2/1 4/3/1 54/4/1
f 40/5/2 17/6/2 8/7/2 37/8/2
f 37/9/3 8/10/3 6/11/3 38/12/3
f 56/13/4 14/14/4 2/15/4 53/16/4
f 19/17/5 7/18/5 5/19/5 18/20/5
f 15/21/6 4/22/6 2/23/6 14/24/6
f 13/25/2 43/26/2 47/27/2 51/28/2 55/29/2 15/30/2 10/31/2 17/6/2 40/5/2 36/32/2 32/33/2 28/34/2 24/35/2 19/36/2 9/37/2
f 54/38/2 4/39/2 15/30/2 55/29/2
f 3/40/5 13/41/5 16/42/5 1/43/5
f 8/44/6 17/45/6 20/46/6 6/47/6
f 18/48/4 23/49/4 27/50/4 31/51/4 35/52/4 39/53/4 20/54/4 12/55/4 14/56/4 56/57/4 52/58/4 48/59/4 44/60/4 16/61/4 11/62/4
f 17/45/6 10/63/6 15/21/6 14/24/6 12/64/6 20/46/6
f 16/42/1 13/41/1 61/41/1 59/42/1 64/42/1 72/42/1 71/42/1 68/42/1 70/42/1 69/42/1 74/65/1 65/42/1
f 7/66/3 21/67/3 22/68/3 5/69/3
f 19/36/2 24/35/2 21/70/2 7/71/2
f 21/67/3 25/72/3 26/73/3 22/68/3
f 24/35/2 28/34/2 25/74/2 21/70/2
f 25/72/3 29/75/3 30/76/3 26/73/3
f 28/34/2 32/33/2 29/77/2 25/74/2
f 29/75/3 33/78/3 34/79/3 30/76/3
f 32/33/2 36/32/2 33/80/2 29/77/2
f 33/78/3 37/9/3 38/12/3 34/79/3
f 36/32/2 40/5/2 37/8/2 33/80/2
f 38/81/4 6/82/4 20/83/4 39/84/4 35/85/4 34/86/4
f 5/87/4 22/88/4 26/89/4 30/90/4 34/91/4 35/92/4 31/93/4 27/94/4 23/95/4 18/96/4
f 3/97/2 42/98/2 43/26/2 13/25/2
f 13/99/2 9/100/2 19/101/2 57/102/2 58/103/2 61/104/2
f 1/105/1 41/106/1 42/107/1 3/108/1
f 42/98/2 46/109/2 47/27/2 43/26/2
f 1/105/7 59/42/7 61/41/7 3/108/7
f 41/106/1 45/110/1 46/111/1 42/107/1
f 46/109/2 50/112/2 51/28/2 47/27/2
f 19/17/3 18/20/3 73/113/3 62/20/3 57/17/3
f 45/110/1 49/114/1 50/115/1 46/111/1
f 50/112/2 54/38/2 55/29/2 51/28/2
f 61/116/5 58/117/5 57/118/5 62/119/5 60/120/5 67/121/5 66/122/5 63/123/5 59/124/5
f 49/114/1 53/1/1 54/4/1 50/115/1
f 16/125/4 44/126/4 48/127/4 52/128/4 56/129/4 53/130/4 49/131/4 45/132/4 41/133/4 1/134/4
f 61/135/4 13/136/4 3/137/4
f 1/138/4 59/139/4 64/140/4 72/141/4 71/142/4 68/143/4 70/144/4 69/145/4 74/146/4 65/147/4 16/148/4
f 5/19/8 62/20/8 57/17/8 7/18/8
f 18/149/4 73/150/4 62/151/4 5/152/4
f 7/153/2 57/154/2 19/155/2
f 18/156/4 11/157/4 16/158/4 65/159/4 74/160/4 73/161/4
f 73/162/4 74/163/4 69/164/4 70/165/4 68/166/4 71/167/4 72/168/4 64/169/4 59/170/4 63/171/4 66/172/4 67/173/4 60/174/4 62/175/4
