# Blender 3.6.2
# www.blender.org
mtllib DeceBalus_Tree_Part2.mtl
o Cube.004
v -0.350000 0.800000 0.350000
v -0.350000 1.200000 0.350000
v -0.350000 0.800000 -0.350000
v -0.350000 1.200000 -0.350000
v 0.350000 0.800000 0.350000
v 0.350000 1.200000 0.350000
v 0.350000 0.800000 -0.350000
v 0.350000 1.200000 -0.350000
vn -1.0000 -0.0000 -0.0000
vn -0.0000 -0.0000 -1.0000
vn 1.0000 -0.0000 -0.0000
vn -0.0000 -0.0000 1.0000
vn -0.0000 -1.0000 -0.0000
vn -0.0000 1.0000 -0.0000
vt 0.258544 0.601764
vt 0.485493 0.601764
vt 0.485493 0.659849
vt 0.258544 0.659849
vt 0.259039 0.604815
vt 0.486027 0.604815
vt 0.486027 0.660481
vt 0.259039 0.660481
vt 0.259539 0.605419
vt 0.485902 0.605419
vt 0.485902 0.662818
vt 0.259539 0.662818
vt 0.260982 0.604177
vt 0.483056 0.604177
vt 0.483056 0.660197
vt 0.260982 0.660197
vt 0.260152 0.606072
vt 0.484631 0.606072
vt 0.484631 0.659196
vt 0.260152 0.659196
vt 0.257912 0.604975
vt 0.484481 0.604975
vt 0.484481 0.662500
vt 0.257912 0.662500
s 0
usemtl Material
f 1/1/1 2/2/1 4/3/1 3/4/1
f 3/5/2 4/6/2 8/7/2 7/8/2
f 7/9/3 8/10/3 6/11/3 5/12/3
f 5/13/4 6/14/4 2/15/4 1/16/4
f 3/17/5 7/18/5 5/19/5 1/20/5
f 8/21/6 4/22/6 2/23/6 6/24/6
