# Blender 3.6.2
# www.blender.org
mtllib DeceBalus_Tower_Section_4.mtl
o Cube.088
v 0.088089 1.922701 -0.223064
v -0.088089 1.922701 -0.223065
v 0.088089 1.922701 -0.138054
v -0.088089 1.922701 -0.138054
v 0.088089 1.654835 -0.223064
v -0.088089 1.654835 -0.223065
v 0.088089 1.654835 -0.138053
v -0.088089 1.654835 -0.138054
vn -0.0000 1.0000 -0.0000
vn -0.0000 -0.0000 1.0000
vn -0.0000 -1.0000 -0.0000
vn -0.0000 -0.0000 -1.0000
vn 1.0000 -0.0000 -0.0000
vn -1.0000 -0.0000 -0.0000
vt 0.514670 0.512500
vt 0.603091 0.512500
vt 0.603091 0.603549
vt 0.514670 0.603549
vt 0.515148 0.508768
vt 0.602112 0.508768
vt 0.602112 0.602616
vt 0.515148 0.602616
vt 0.518304 0.508052
vt 0.598455 0.508052
vt 0.598455 0.601901
vt 0.518304 0.601901
vt 0.517553 0.510010
vt 0.598705 0.510010
vt 0.598705 0.603859
vt 0.517553 0.603859
vt 0.517585 0.508646
vt 0.597380 0.508646
vt 0.597380 0.602495
vt 0.517585 0.602495
vt 0.518096 0.508965
vt 0.599159 0.508965
vt 0.599159 0.602814
vt 0.518096 0.602814
s 0
usemtl Material.006
f 1/1/1 2/2/1 4/3/1 3/4/1
f 3/5/2 4/6/2 8/7/2 7/8/2
f 7/9/3 8/10/3 6/11/3 5/12/3
f 5/13/4 6/14/4 2/15/4 1/16/4
f 3/17/5 7/18/5 5/19/5 1/20/5
f 8/21/6 4/22/6 2/23/6 6/24/6
o Cube.089
v 0.088089 1.922701 0.138054
v -0.088089 1.922701 0.138054
v 0.088089 1.922701 0.223064
v -0.088089 1.922701 0.223064
v 0.088089 1.654835 0.138054
v -0.088089 1.654835 0.138054
v 0.088089 1.654835 0.223064
v -0.088089 1.654835 0.223064
vn -0.0000 1.0000 -0.0000
vn -0.0000 -0.0000 1.0000
vn -0.0000 -1.0000 -0.0000
vn -0.0000 -0.0000 -1.0000
vn 1.0000 -0.0000 -0.0000
vn -1.0000 -0.0000 -0.0000
vt 0.514670 0.512500
vt 0.603091 0.512500
vt 0.603091 0.603549
vt 0.514670 0.603549
vt 0.515148 0.508768
vt 0.602112 0.508768
vt 0.602112 0.602616
vt 0.515148 0.602616
vt 0.518304 0.508052
vt 0.598455 0.508052
vt 0.598455 0.601901
vt 0.518304 0.601901
vt 0.517553 0.510010
vt 0.598705 0.510010
vt 0.598705 0.603859
vt 0.517553 0.603859
vt 0.517585 0.508646
vt 0.597380 0.508646
vt 0.597380 0.602495
vt 0.517585 0.602495
vt 0.518096 0.508965
vt 0.599159 0.508965
vt 0.599159 0.602814
vt 0.518096 0.602814
s 0
usemtl Material.006
f 9/25/7 10/26/7 12/27/7 11/28/7
f 11/29/8 12/30/8 16/31/8 15/32/8
f 15/33/9 16/34/9 14/35/9 13/36/9
f 13/37/10 14/38/10 10/39/10 9/40/10
f 11/41/11 15/42/11 13/43/11 9/44/11
f 16/45/12 12/46/12 10/47/12 14/48/12
o Cube.090
v -0.223064 1.922701 -0.088089
v -0.223064 1.922701 0.088089
v -0.138054 1.922701 -0.088089
v -0.138054 1.922701 0.088089
v -0.223064 1.654835 -0.088089
v -0.223064 1.654835 0.088089
v -0.138054 1.654835 -0.088089
v -0.138054 1.654835 0.088089
vn -0.0000 1.0000 -0.0000
vn 1.0000 -0.0000 -0.0000
vn -0.0000 -1.0000 -0.0000
vn -1.0000 -0.0000 -0.0000
vn -0.0000 -0.0000 -1.0000
vn -0.0000 -0.0000 1.0000
vt 0.514670 0.512500
vt 0.603091 0.512500
vt 0.603091 0.603549
vt 0.514670 0.603549
vt 0.515148 0.508768
vt 0.602112 0.508768
vt 0.602112 0.602616
vt 0.515148 0.602616
vt 0.518304 0.508052
vt 0.598455 0.508052
vt 0.598455 0.601901
vt 0.518304 0.601901
vt 0.517553 0.510010
vt 0.598705 0.510010
vt 0.598705 0.603859
vt 0.517553 0.603859
vt 0.517585 0.508646
vt 0.597380 0.508646
vt 0.597380 0.602495
vt 0.517585 0.602495
vt 0.518096 0.508965
vt 0.599159 0.508965
vt 0.599159 0.602814
vt 0.518096 0.602814
s 0
usemtl Material.006
f 17/49/13 18/50/13 20/51/13 19/52/13
f 19/53/14 20/54/14 24/55/14 23/56/14
f 23/57/15 24/58/15 22/59/15 21/60/15
f 21/61/16 22/62/16 18/63/16 17/64/16
f 19/65/17 23/66/17 21/67/17 17/68/17
f 24/69/18 20/70/18 18/71/18 22/72/18
o Cube.091
v 0.138054 1.922701 -0.088089
v 0.138054 1.922701 0.088089
v 0.223064 1.922701 -0.088089
v 0.223064 1.922701 0.088089
v 0.138054 1.654835 -0.088089
v 0.138054 1.654835 0.088089
v 0.223064 1.654835 -0.088089
v 0.223064 1.654835 0.088089
vn -0.0000 1.0000 -0.0000
vn 1.0000 -0.0000 -0.0000
vn -0.0000 -1.0000 -0.0000
vn -1.0000 -0.0000 -0.0000
vn -0.0000 -0.0000 -1.0000
vn -0.0000 -0.0000 1.0000
vt 0.514670 0.512500
vt 0.603091 0.512500
vt 0.603091 0.603549
vt 0.514670 0.603549
vt 0.515148 0.508768
vt 0.602112 0.508768
vt 0.602112 0.602616
vt 0.515148 0.602616
vt 0.518304 0.508052
vt 0.598455 0.508052
vt 0.598455 0.601901
vt 0.518304 0.601901
vt 0.517553 0.510010
vt 0.598705 0.510010
vt 0.598705 0.603859
vt 0.517553 0.603859
vt 0.517585 0.508646
vt 0.597380 0.508646
vt 0.597380 0.602495
vt 0.517585 0.602495
vt 0.518096 0.508965
vt 0.599159 0.508965
vt 0.599159 0.602814
vt 0.518096 0.602814
s 0
usemtl Material.006
f 25/73/19 26/74/19 28/75/19 27/76/19
f 27/77/20 28/78/20 32/79/20 31/80/20
f 31/81/21 32/82/21 30/83/21 29/84/21
f 29/85/22 30/86/22 26/87/22 25/88/22
f 27/89/23 31/90/23 29/91/23 25/92/23
f 32/93/24 28/94/24 26/95/24 30/96/24
o Cube.092
v 0.021935 1.911695 -0.166465
v 0.144568 1.911695 -0.014830
v 0.099280 1.911695 -0.229018
v 0.221914 1.911695 -0.077383
v 0.021935 1.665841 -0.166465
v 0.144568 1.665841 -0.014830
v 0.099280 1.665841 -0.229018
v 0.221914 1.665841 -0.077383
vn -0.0000 1.0000 -0.0000
vn 0.7775 -0.0000 -0.6288
vn -0.0000 -1.0000 -0.0000
vn -0.7775 -0.0000 0.6288
vn -0.6288 -0.0000 -0.7775
vn 0.6288 -0.0000 0.7775
vt 0.635971 0.643548
vt 0.724392 0.643548
vt 0.724392 0.734597
vt 0.635971 0.734597
vt 0.636449 0.639816
vt 0.723413 0.639816
vt 0.723413 0.733665
vt 0.636449 0.733665
vt 0.639605 0.639100
vt 0.719756 0.639100
vt 0.719756 0.732949
vt 0.639605 0.732949
vt 0.638854 0.641059
vt 0.720006 0.641059
vt 0.720006 0.734907
vt 0.638854 0.734907
vt 0.638885 0.639694
vt 0.718681 0.639694
vt 0.718681 0.733543
vt 0.638885 0.733543
vt 0.639396 0.640013
vt 0.720460 0.640013
vt 0.720460 0.733862
vt 0.639396 0.733862
s 0
usemtl Material.006
f 33/97/25 34/98/25 36/99/25 35/100/25
f 35/101/26 36/102/26 40/103/26 39/104/26
f 39/105/27 40/106/27 38/107/27 37/108/27
f 37/109/28 38/110/28 34/111/28 33/112/28
f 35/113/29 39/114/29 37/115/29 33/116/29
f 40/117/30 36/118/30 34/119/30 38/120/30
o Cube.093
v -0.015463 1.911695 0.158046
v -0.158046 1.911696 0.015463
v -0.085802 1.911695 0.228385
v -0.228385 1.911696 0.085802
v -0.015463 1.665841 0.158046
v -0.158046 1.665841 0.015463
v -0.085802 1.665841 0.228385
v -0.228385 1.665841 0.085802
vn -0.0000 1.0000 -0.0000
vn -0.7071 -0.0000 0.7071
vn -0.0000 -1.0000 -0.0000
vn 0.7071 -0.0000 -0.7071
vn 0.7071 -0.0000 0.7071
vn -0.7071 -0.0000 -0.7071
vt 0.635971 0.643548
vt 0.724392 0.643548
vt 0.724392 0.734597
vt 0.635971 0.734597
vt 0.636449 0.639816
vt 0.723413 0.639816
vt 0.723413 0.733665
vt 0.636449 0.733665
vt 0.639605 0.639100
vt 0.719756 0.639100
vt 0.719756 0.732949
vt 0.639605 0.732949
vt 0.638854 0.641059
vt 0.720006 0.641059
vt 0.720006 0.734907
vt 0.638854 0.734907
vt 0.638885 0.639694
vt 0.718681 0.639694
vt 0.718681 0.733543
vt 0.638885 0.733543
vt 0.639396 0.640013
vt 0.720460 0.640013
vt 0.720460 0.733862
vt 0.639396 0.733862
s 0
usemtl Material.006
f 41/121/31 42/122/31 44/123/31 43/124/31
f 43/125/32 44/126/32 48/127/32 47/128/32
f 47/129/33 48/130/33 46/131/33 45/132/33
f 45/133/34 46/134/34 42/135/34 41/136/34
f 43/137/35 47/138/35 45/139/35 41/140/35
f 48/141/36 44/142/36 42/143/36 46/144/36
o Cube.094
v -0.152331 1.911695 -0.021178
v -0.021178 1.911696 -0.152331
v -0.222670 1.911695 -0.091517
v -0.091517 1.911696 -0.222670
v -0.152331 1.665841 -0.021178
v -0.021178 1.665841 -0.152331
v -0.222670 1.665841 -0.091517
v -0.091517 1.665841 -0.222670
vn -0.0000 1.0000 -0.0000
vn -0.7071 -0.0000 -0.7071
vn -0.0000 -1.0000 -0.0000
vn 0.7071 -0.0000 0.7071
vn -0.7071 -0.0000 0.7071
vn 0.7071 -0.0000 -0.7071
vt 0.635971 0.643548
vt 0.724392 0.643548
vt 0.724392 0.734597
vt 0.635971 0.734597
vt 0.636449 0.639816
vt 0.723413 0.639816
vt 0.723413 0.733665
vt 0.636449 0.733665
vt 0.639605 0.639100
vt 0.719756 0.639100
vt 0.719756 0.732949
vt 0.639605 0.732949
vt 0.638854 0.641059
vt 0.720006 0.641059
vt 0.720006 0.734907
vt 0.638854 0.734907
vt 0.638885 0.639694
vt 0.718681 0.639694
vt 0.718681 0.733543
vt 0.638885 0.733543
vt 0.639396 0.640013
vt 0.720460 0.640013
vt 0.720460 0.733862
vt 0.639396 0.733862
s 0
usemtl Material.006
f 49/145/37 50/146/37 52/147/37 51/148/37
f 51/149/38 52/150/38 56/151/38 55/152/38
f 55/153/39 56/154/39 54/155/39 53/156/39
f 53/157/40 54/158/40 50/159/40 49/160/40
f 51/161/41 55/162/41 53/163/41 49/164/41
f 56/165/42 52/166/42 50/167/42 54/168/42
o Cube.095
v 0.089067 1.911695 0.225120
v 0.225120 1.911695 0.089067
v 0.018728 1.911695 0.154781
v 0.154781 1.911695 0.018728
v 0.089067 1.665841 0.225120
v 0.225120 1.665841 0.089067
v 0.018728 1.665841 0.154781
v 0.154781 1.665841 0.018728
vn -0.0000 1.0000 -0.0000
vn -0.7071 -0.0000 -0.7071
vn -0.0000 -1.0000 -0.0000
vn 0.7071 -0.0000 0.7071
vn -0.7071 -0.0000 0.7071
vn 0.7071 -0.0000 -0.7071
vt 0.635971 0.643548
vt 0.724392 0.643548
vt 0.724392 0.734597
vt 0.635971 0.734597
vt 0.636449 0.639816
vt 0.723413 0.639816
vt 0.723413 0.733665
vt 0.636449 0.733665
vt 0.639605 0.639100
vt 0.719756 0.639100
vt 0.719756 0.732949
vt 0.639605 0.732949
vt 0.638854 0.641059
vt 0.720006 0.641059
vt 0.720006 0.734907
vt 0.638854 0.734907
vt 0.638885 0.639694
vt 0.718681 0.639694
vt 0.718681 0.733543
vt 0.638885 0.733543
vt 0.639396 0.640013
vt 0.720460 0.640013
vt 0.720460 0.733862
vt 0.639396 0.733862
s 0
usemtl Material.006
f 57/169/43 58/170/43 60/171/43 59/172/43
f 59/173/44 60/174/44 64/175/44 63/176/44
f 63/177/45 64/178/45 62/179/45 61/180/45
f 61/181/46 62/182/46 58/183/46 57/184/46
f 59/185/47 63/186/47 61/187/47 57/188/47
f 64/189/48 60/190/48 58/191/48 62/192/48
o Cube.096
v 0.091918 2.372701 -0.223064
v -0.084259 2.372701 -0.223065
v 0.091918 2.372701 -0.138054
v -0.084259 2.372701 -0.138054
v 0.091918 2.104835 -0.223064
v -0.084259 2.104835 -0.223065
v 0.091918 2.104835 -0.138053
v -0.084259 2.104835 -0.138054
vn -0.0000 1.0000 -0.0000
vn -0.0000 -0.0000 1.0000
vn -0.0000 -1.0000 -0.0000
vn -0.0000 -0.0000 -1.0000
vn 1.0000 -0.0000 -0.0000
vn -1.0000 -0.0000 -0.0000
vt 0.514670 0.512500
vt 0.603091 0.512500
vt 0.603091 0.603549
vt 0.514670 0.603549
vt 0.515148 0.508768
vt 0.602112 0.508768
vt 0.602112 0.602616
vt 0.515148 0.602616
vt 0.518304 0.508052
vt 0.598455 0.508052
vt 0.598455 0.601901
vt 0.518304 0.601901
vt 0.517553 0.510010
vt 0.598705 0.510010
vt 0.598705 0.603859
vt 0.517553 0.603859
vt 0.517585 0.508646
vt 0.597380 0.508646
vt 0.597380 0.602495
vt 0.517585 0.602495
vt 0.518096 0.508965
vt 0.599159 0.508965
vt 0.599159 0.602814
vt 0.518096 0.602814
s 0
usemtl Material.006
f 65/193/49 66/194/49 68/195/49 67/196/49
f 67/197/50 68/198/50 72/199/50 71/200/50
f 71/201/51 72/202/51 70/203/51 69/204/51
f 69/205/52 70/206/52 66/207/52 65/208/52
f 67/209/53 71/210/53 69/211/53 65/212/53
f 72/213/54 68/214/54 66/215/54 70/216/54
o Cube.097
v 0.091918 2.372701 0.138054
v -0.084259 2.372701 0.138054
v 0.091918 2.372701 0.223064
v -0.084259 2.372701 0.223064
v 0.091918 2.104835 0.138054
v -0.084259 2.104835 0.138054
v 0.091918 2.104835 0.223064
v -0.084259 2.104835 0.223064
vn -0.0000 1.0000 -0.0000
vn -0.0000 -0.0000 1.0000
vn -0.0000 -1.0000 -0.0000
vn -0.0000 -0.0000 -1.0000
vn 1.0000 -0.0000 -0.0000
vn -1.0000 -0.0000 -0.0000
vt 0.514670 0.512500
vt 0.603091 0.512500
vt 0.603091 0.603549
vt 0.514670 0.603549
vt 0.515148 0.508768
vt 0.602112 0.508768
vt 0.602112 0.602616
vt 0.515148 0.602616
vt 0.518304 0.508052
vt 0.598455 0.508052
vt 0.598455 0.601901
vt 0.518304 0.601901
vt 0.517553 0.510010
vt 0.598705 0.510010
vt 0.598705 0.603859
vt 0.517553 0.603859
vt 0.517585 0.508646
vt 0.597380 0.508646
vt 0.597380 0.602495
vt 0.517585 0.602495
vt 0.518096 0.508965
vt 0.599159 0.508965
vt 0.599159 0.602814
vt 0.518096 0.602814
s 0
usemtl Material.006
f 73/217/55 74/218/55 76/219/55 75/220/55
f 75/221/56 76/222/56 80/223/56 79/224/56
f 79/225/57 80/226/57 78/227/57 77/228/57
f 77/229/58 78/230/58 74/231/58 73/232/58
f 75/233/59 79/234/59 77/235/59 73/236/59
f 80/237/60 76/238/60 74/239/60 78/240/60
o Cube.098
v -0.219235 2.372701 -0.088089
v -0.219235 2.372701 0.088089
v -0.134224 2.372701 -0.088089
v -0.134224 2.372701 0.088089
v -0.219235 2.104835 -0.088089
v -0.219235 2.104835 0.088089
v -0.134224 2.104835 -0.088089
v -0.134224 2.104835 0.088089
vn -0.0000 1.0000 -0.0000
vn 1.0000 -0.0000 -0.0000
vn -0.0000 -1.0000 -0.0000
vn -1.0000 -0.0000 -0.0000
vn -0.0000 -0.0000 -1.0000
vn -0.0000 -0.0000 1.0000
vt 0.514670 0.512500
vt 0.603091 0.512500
vt 0.603091 0.603549
vt 0.514670 0.603549
vt 0.515148 0.508768
vt 0.602112 0.508768
vt 0.602112 0.602616
vt 0.515148 0.602616
vt 0.518304 0.508052
vt 0.598455 0.508052
vt 0.598455 0.601901
vt 0.518304 0.601901
vt 0.517553 0.510010
vt 0.598705 0.510010
vt 0.598705 0.603859
vt 0.517553 0.603859
vt 0.517585 0.508646
vt 0.597380 0.508646
vt 0.597380 0.602495
vt 0.517585 0.602495
vt 0.518096 0.508965
vt 0.599159 0.508965
vt 0.599159 0.602814
vt 0.518096 0.602814
s 0
usemtl Material.006
f 81/241/61 82/242/61 84/243/61 83/244/61
f 83/245/62 84/246/62 88/247/62 87/248/62
f 87/249/63 88/250/63 86/251/63 85/252/63
f 85/253/64 86/254/64 82/255/64 81/256/64
f 83/257/65 87/258/65 85/259/65 81/260/65
f 88/261/66 84/262/66 82/263/66 86/264/66
o Cube.099
v 0.141883 2.372701 -0.088089
v 0.141883 2.372701 0.088089
v 0.226894 2.372701 -0.088089
v 0.226894 2.372701 0.088089
v 0.141883 2.104835 -0.088089
v 0.141883 2.104835 0.088089
v 0.226894 2.104835 -0.088089
v 0.226894 2.104835 0.088089
vn -0.0000 1.0000 -0.0000
vn 1.0000 -0.0000 -0.0000
vn -0.0000 -1.0000 -0.0000
vn -1.0000 -0.0000 -0.0000
vn -0.0000 -0.0000 -1.0000
vn -0.0000 -0.0000 1.0000
vt 0.514670 0.512500
vt 0.603091 0.512500
vt 0.603091 0.603549
vt 0.514670 0.603549
vt 0.515148 0.508768
vt 0.602112 0.508768
vt 0.602112 0.602616
vt 0.515148 0.602616
vt 0.518304 0.508052
vt 0.598455 0.508052
vt 0.598455 0.601901
vt 0.518304 0.601901
vt 0.517553 0.510010
vt 0.598705 0.510010
vt 0.598705 0.603859
vt 0.517553 0.603859
vt 0.517585 0.508646
vt 0.597380 0.508646
vt 0.597380 0.602495
vt 0.517585 0.602495
vt 0.518096 0.508965
vt 0.599159 0.508965
vt 0.599159 0.602814
vt 0.518096 0.602814
s 0
usemtl Material.006
f 89/265/67 90/266/67 92/267/67 91/268/67
f 91/269/68 92/270/68 96/271/68 95/272/68
f 95/273/69 96/274/69 94/275/69 93/276/69
f 93/277/70 94/278/70 90/279/70 89/280/70
f 91/281/71 95/282/71 93/283/71 89/284/71
f 96/285/72 92/286/72 90/287/72 94/288/72
o Cube.100
v 0.025764 2.361696 -0.166465
v 0.148398 2.361696 -0.014830
v 0.103109 2.361696 -0.229018
v 0.225743 2.361696 -0.077383
v 0.025764 2.115841 -0.166465
v 0.148398 2.115841 -0.014830
v 0.103109 2.115841 -0.229018
v 0.225743 2.115841 -0.077383
vn -0.0000 1.0000 -0.0000
vn 0.7775 -0.0000 -0.6288
vn -0.0000 -1.0000 -0.0000
vn -0.7775 -0.0000 0.6288
vn -0.6288 -0.0000 -0.7775
vn 0.6288 -0.0000 0.7775
vt 0.635971 0.643548
vt 0.724392 0.643548
vt 0.724392 0.734597
vt 0.635971 0.734597
vt 0.636449 0.639816
vt 0.723413 0.639816
vt 0.723413 0.733665
vt 0.636449 0.733665
vt 0.639605 0.639100
vt 0.719756 0.639100
vt 0.719756 0.732949
vt 0.639605 0.732949
vt 0.638854 0.641059
vt 0.720006 0.641059
vt 0.720006 0.734907
vt 0.638854 0.734907
vt 0.638885 0.639694
vt 0.718681 0.639694
vt 0.718681 0.733543
vt 0.638885 0.733543
vt 0.639396 0.640013
vt 0.720460 0.640013
vt 0.720460 0.733862
vt 0.639396 0.733862
s 0
usemtl Material.006
f 97/289/73 98/290/73 100/291/73 99/292/73
f 99/293/74 100/294/74 104/295/74 103/296/74
f 103/297/75 104/298/75 102/299/75 101/300/75
f 101/301/76 102/302/76 98/303/76 97/304/76
f 99/305/77 103/306/77 101/307/77 97/308/77
f 104/309/78 100/310/78 98/311/78 102/312/78
o Cube.101
v -0.011634 2.361696 0.158046
v -0.154216 2.361696 0.015463
v -0.081973 2.361696 0.228385
v -0.224555 2.361696 0.085802
v -0.011634 2.115841 0.158046
v -0.154216 2.115841 0.015463
v -0.081973 2.115841 0.228385
v -0.224555 2.115841 0.085802
vn -0.0000 1.0000 -0.0000
vn -0.7071 -0.0000 0.7071
vn -0.0000 -1.0000 -0.0000
vn 0.7071 -0.0000 -0.7071
vn 0.7071 -0.0000 0.7071
vn -0.7071 -0.0000 -0.7071
vt 0.635971 0.643548
vt 0.724392 0.643548
vt 0.724392 0.734597
vt 0.635971 0.734597
vt 0.636449 0.639816
vt 0.723413 0.639816
vt 0.723413 0.733665
vt 0.636449 0.733665
vt 0.639605 0.639100
vt 0.719756 0.639100
vt 0.719756 0.732949
vt 0.639605 0.732949
vt 0.638854 0.641059
vt 0.720006 0.641059
vt 0.720006 0.734907
vt 0.638854 0.734907
vt 0.638885 0.639694
vt 0.718681 0.639694
vt 0.718681 0.733543
vt 0.638885 0.733543
vt 0.639396 0.640013
vt 0.720460 0.640013
vt 0.720460 0.733862
vt 0.639396 0.733862
s 0
usemtl Material.006
f 105/313/79 106/314/79 108/315/79 107/316/79
f 107/317/80 108/318/80 112/319/80 111/320/80
f 111/321/81 112/322/81 110/323/81 109/324/81
f 109/325/82 110/326/82 106/327/82 105/328/82
f 107/329/83 111/330/83 109/331/83 105/332/83
f 112/333/84 108/334/84 106/335/84 110/336/84
o Cube.102
v -0.148501 2.361696 -0.021178
v -0.017349 2.361696 -0.152331
v -0.218841 2.361696 -0.091517
v -0.087688 2.361696 -0.222670
v -0.148501 2.115841 -0.021178
v -0.017349 2.115841 -0.152331
v -0.218841 2.115841 -0.091517
v -0.087688 2.115841 -0.222670
vn -0.0000 1.0000 -0.0000
vn -0.7071 -0.0000 -0.7071
vn -0.0000 -1.0000 -0.0000
vn 0.7071 -0.0000 0.7071
vn -0.7071 -0.0000 0.7071
vn 0.7071 -0.0000 -0.7071
vt 0.635971 0.643548
vt 0.724392 0.643548
vt 0.724392 0.734597
vt 0.635971 0.734597
vt 0.636449 0.639816
vt 0.723413 0.639816
vt 0.723413 0.733665
vt 0.636449 0.733665
vt 0.639605 0.639100
vt 0.719756 0.639100
vt 0.719756 0.732949
vt 0.639605 0.732949
vt 0.638854 0.641059
vt 0.720006 0.641059
vt 0.720006 0.734907
vt 0.638854 0.734907
vt 0.638885 0.639694
vt 0.718681 0.639694
vt 0.718681 0.733543
vt 0.638885 0.733543
vt 0.639396 0.640013
vt 0.720460 0.640013
vt 0.720460 0.733862
vt 0.639396 0.733862
s 0
usemtl Material.006
f 113/337/85 114/338/85 116/339/85 115/340/85
f 115/341/86 116/342/86 120/343/86 119/344/86
f 119/345/87 120/346/87 118/347/87 117/348/87
f 117/349/88 118/350/88 114/351/88 113/352/88
f 115/353/89 119/354/89 117/355/89 113/356/89
f 120/357/90 116/358/90 114/359/90 118/360/90
o Cube.103
v 0.092896 2.361696 0.225120
v 0.228950 2.361696 0.089067
v 0.022557 2.361696 0.154781
v 0.158611 2.361696 0.018728
v 0.092896 2.115841 0.225120
v 0.228950 2.115841 0.089067
v 0.022557 2.115841 0.154781
v 0.158611 2.115841 0.018728
vn -0.0000 1.0000 -0.0000
vn -0.7071 -0.0000 -0.7071
vn -0.0000 -1.0000 -0.0000
vn 0.7071 -0.0000 0.7071
vn -0.7071 -0.0000 0.7071
vn 0.7071 -0.0000 -0.7071
vt 0.635971 0.643548
vt 0.724392 0.643548
vt 0.724392 0.734597
vt 0.635971 0.734597
vt 0.636449 0.639816
vt 0.723413 0.639816
vt 0.723413 0.733665
vt 0.636449 0.733665
vt 0.639605 0.639100
vt 0.719756 0.639100
vt 0.719756 0.732949
vt 0.639605 0.732949
vt 0.638854 0.641059
vt 0.720006 0.641059
vt 0.720006 0.734907
vt 0.638854 0.734907
vt 0.638885 0.639694
vt 0.718681 0.639694
vt 0.718681 0.733543
vt 0.638885 0.733543
vt 0.639396 0.640013
vt 0.720460 0.640013
vt 0.720460 0.733862
vt 0.639396 0.733862
s 0
usemtl Material.006
f 121/361/91 122/362/91 124/363/91 123/364/91
f 123/365/92 124/366/92 128/367/92 127/368/92
f 127/369/93 128/370/93 126/371/93 125/372/93
f 125/373/94 126/374/94 122/375/94 121/376/94
f 123/377/95 127/378/95 125/379/95 121/380/95
f 128/381/96 124/382/96 122/383/96 126/384/96
o Cube.104
v 0.135883 2.287098 -0.133933
v -0.135883 2.287098 -0.133933
v 0.135883 2.372109 -0.133933
v -0.135883 2.372109 -0.133933
v 0.135883 2.287098 0.133933
v -0.135883 2.287098 0.133933
v 0.135883 2.372109 0.133933
v -0.135883 2.372109 0.133933
vn -0.0000 -0.0000 -1.0000
vn -0.0000 1.0000 -0.0000
vn -0.0000 -0.0000 1.0000
vn -0.0000 -1.0000 -0.0000
vn 1.0000 -0.0000 -0.0000
vn -1.0000 -0.0000 -0.0000
vt 0.514670 0.512500
vt 0.603091 0.512500
vt 0.603091 0.603549
vt 0.514670 0.603549
vt 0.515148 0.508768
vt 0.602112 0.508768
vt 0.602112 0.602616
vt 0.515148 0.602616
vt 0.518304 0.508052
vt 0.598455 0.508052
vt 0.598455 0.601901
vt 0.518304 0.601901
vt 0.517553 0.510010
vt 0.598705 0.510010
vt 0.598705 0.603859
vt 0.517553 0.603859
vt 0.517585 0.508646
vt 0.597380 0.508646
vt 0.597380 0.602495
vt 0.517585 0.602495
vt 0.518096 0.508965
vt 0.599159 0.508965
vt 0.599159 0.602814
vt 0.518096 0.602814
s 0
usemtl Material.006
f 129/385/97 130/386/97 132/387/97 131/388/97
f 131/389/98 132/390/98 136/391/98 135/392/98
f 135/393/99 136/394/99 134/395/99 133/396/99
f 133/397/100 134/398/100 130/399/100 129/400/100
f 131/401/101 135/402/101 133/403/101 129/404/101
f 136/405/102 132/406/102 130/407/102 134/408/102
