# Blender 3.6.2
# www.blender.org
mtllib DeceBalus_Crusher_Propeller.mtl
o Crusher.Propeller
v 0.000000 0.400000 -0.100000
v 0.000000 0.600000 -0.100000
v 0.019509 0.400000 -0.098079
v 0.019509 0.600000 -0.098079
v 0.038268 0.400000 -0.092388
v 0.038268 0.600000 -0.092388
v 0.055557 0.400000 -0.083147
v 0.055557 0.600000 -0.083147
v 0.070711 0.400000 -0.070711
v 0.070711 0.600000 -0.070711
v 0.083147 0.400000 -0.055557
v 0.083147 0.600000 -0.055557
v 0.092388 0.400000 -0.038268
v 0.092388 0.600000 -0.038268
v 0.098079 0.400000 -0.019509
v 0.098079 0.600000 -0.019509
v 0.100000 0.400000 0.000000
v 0.100000 0.600000 0.000000
v 0.098079 0.400000 0.019509
v 0.098079 0.600000 0.019509
v 0.092388 0.400000 0.038268
v 0.092388 0.600000 0.038268
v 0.083147 0.400000 0.055557
v 0.083147 0.600000 0.055557
v 0.070711 0.400000 0.070711
v 0.070711 0.600000 0.070711
v 0.055557 0.400000 0.083147
v 0.055557 0.600000 0.083147
v 0.038268 0.400000 0.092388
v 0.038268 0.600000 0.092388
v 0.019509 0.400000 0.098079
v 0.019509 0.600000 0.098079
v 0.000000 0.400000 0.100000
v 0.000000 0.600000 0.100000
v -0.019509 0.400000 0.098079
v -0.019509 0.600000 0.098079
v -0.038268 0.400000 0.092388
v -0.038268 0.600000 0.092388
v -0.055557 0.400000 0.083147
v -0.055557 0.600000 0.083147
v -0.070711 0.400000 0.070711
v -0.070711 0.600000 0.070711
v -0.083147 0.400000 0.055557
v -0.083147 0.600000 0.055557
v -0.092388 0.400000 0.038268
v -0.092388 0.600000 0.038268
v -0.098079 0.400000 0.019509
v -0.098079 0.600000 0.019509
v -0.100000 0.400000 0.000000
v -0.100000 0.600000 0.000000
v -0.098079 0.400000 -0.019509
v -0.098079 0.600000 -0.019509
v -0.092388 0.400000 -0.038268
v -0.092388 0.600000 -0.038268
v -0.083147 0.400000 -0.055557
v -0.083147 0.600000 -0.055557
v -0.070711 0.400000 -0.070711
v -0.070711 0.600000 -0.070711
v -0.055557 0.400000 -0.083147
v -0.055557 0.600000 -0.083147
v -0.038268 0.400000 -0.092388
v -0.038268 0.600000 -0.092388
v -0.019509 0.400000 -0.098079
v -0.019509 0.600000 -0.098079
v -0.166303 0.439047 0.169325
v -0.166303 0.558800 0.169325
v -0.166303 0.439047 -0.163441
v -0.166303 0.558800 -0.163441
v 0.166463 0.439047 0.169325
v 0.166463 0.558800 0.169325
v 0.166463 0.439047 -0.163441
v 0.166463 0.558800 -0.163441
v 0.155503 0.567381 0.074993
v 0.449773 0.567381 0.074993
v 0.155503 0.567381 -0.059566
v 0.449773 0.567381 -0.059566
v 0.155503 0.432822 0.074993
v 0.449773 0.432822 0.074993
v 0.155503 0.432822 -0.059566
v 0.449773 0.432822 -0.059566
v -0.157459 0.432869 0.074697
v -0.451728 0.432869 0.074697
v -0.157459 0.432869 -0.059862
v -0.451728 0.432869 -0.059862
v -0.157459 0.567428 0.074697
v -0.451728 0.567428 0.074697
v -0.157459 0.567428 -0.059862
v -0.451728 0.567428 -0.059862
v -0.069360 0.567513 -0.445245
v -0.069360 0.567513 -0.150975
v 0.065199 0.567513 -0.445245
v 0.065199 0.567513 -0.150975
v -0.069360 0.432954 -0.445245
v -0.069360 0.432954 -0.150975
v 0.065199 0.432954 -0.445245
v 0.065199 0.432954 -0.150975
v 0.068301 0.433002 0.159256
v 0.070476 0.433002 0.453518
v -0.066254 0.433002 0.160250
v -0.064079 0.433002 0.454512
v 0.068301 0.567561 0.159256
v 0.070476 0.567561 0.453518
v -0.066254 0.567561 0.160250
v -0.064079 0.567561 0.454512
vn 0.0980 -0.0000 -0.9952
vn 0.2903 -0.0000 -0.9569
vn 0.4714 -0.0000 -0.8819
vn 0.6344 -0.0000 -0.7730
vn 0.7730 -0.0000 -0.6344
vn 0.8819 -0.0000 -0.4714
vn 0.9569 -0.0000 -0.2903
vn 0.9952 -0.0000 -0.0980
vn 0.9952 -0.0000 0.0980
vn 0.9569 -0.0000 0.2903
vn 0.8819 -0.0000 0.4714
vn 0.7730 -0.0000 0.6344
vn 0.6344 -0.0000 0.7730
vn 0.4714 -0.0000 0.8819
vn 0.2903 -0.0000 0.9569
vn 0.0980 -0.0000 0.9952
vn -0.0980 -0.0000 0.9952
vn -0.2903 -0.0000 0.9569
vn -0.4714 -0.0000 0.8819
vn -0.6344 -0.0000 0.7730
vn -0.7730 -0.0000 0.6344
vn -0.8819 -0.0000 0.4714
vn -0.9569 -0.0000 0.2903
vn -0.9952 -0.0000 0.0980
vn -0.9952 -0.0000 -0.0980
vn -0.9569 -0.0000 -0.2903
vn -0.8819 -0.0000 -0.4714
vn -0.7730 -0.0000 -0.6344
vn -0.6344 -0.0000 -0.7730
vn -0.4714 -0.0000 -0.8819
vn -0.0000 1.0000 -0.0000
vn -0.2903 -0.0000 -0.9569
vn -0.0980 -0.0000 -0.9952
vn -0.0000 -1.0000 -0.0000
vn -1.0000 -0.0000 -0.0000
vn -0.0000 -0.0000 -1.0000
vn 1.0000 -0.0000 -0.0000
vn -0.0000 -0.0000 1.0000
vn -1.0000 -0.0000 0.0074
vn 1.0000 -0.0000 -0.0074
vn -0.0074 -0.0000 -1.0000
vn 0.0074 -0.0000 1.0000
vt 0.736765 0.754028
vt 0.736765 0.994045
vt 0.730480 0.994045
vt 0.730480 0.754028
vt 0.724195 0.994045
vt 0.724195 0.754028
vt 0.717910 0.994045
vt 0.717910 0.754028
vt 0.711625 0.994045
vt 0.711625 0.754028
vt 0.705340 0.994045
vt 0.705340 0.754028
vt 0.699055 0.994045
vt 0.699055 0.754028
vt 0.692770 0.994045
vt 0.692770 0.754028
vt 0.686485 0.994045
vt 0.686485 0.754028
vt 0.680200 0.994045
vt 0.680200 0.754028
vt 0.673915 0.994045
vt 0.673915 0.754028
vt 0.667630 0.994045
vt 0.667630 0.754028
vt 0.661345 0.994045
vt 0.661345 0.754028
vt 0.655060 0.994045
vt 0.655060 0.754028
vt 0.648775 0.994045
vt 0.648775 0.754028
vt 0.642490 0.994045
vt 0.642490 0.754028
vt 0.636205 0.994045
vt 0.636205 0.754028
vt 0.629920 0.994045
vt 0.629920 0.754028
vt 0.623635 0.994045
vt 0.623635 0.754028
vt 0.617350 0.994045
vt 0.617350 0.754028
vt 0.611065 0.994045
vt 0.611065 0.754028
vt 0.604780 0.994045
vt 0.604780 0.754028
vt 0.598495 0.994045
vt 0.598495 0.754028
vt 0.592210 0.994045
vt 0.592210 0.754028
vt 0.585925 0.994045
vt 0.585925 0.754028
vt 0.579640 0.994045
vt 0.579640 0.754028
vt 0.573355 0.994045
vt 0.573355 0.754028
vt 0.567070 0.994045
vt 0.567070 0.754028
vt 0.560785 0.994045
vt 0.560785 0.754028
vt 0.554500 0.994045
vt 0.554500 0.754028
vt 0.548214 0.994045
vt 0.548214 0.754028
vt 0.684915 0.387005
vt 0.671875 0.388337
vt 0.658835 0.387005
vt 0.646295 0.383062
vt 0.634739 0.376659
vt 0.624610 0.368042
vt 0.616297 0.357542
vt 0.610120 0.345562
vt 0.606317 0.332564
vt 0.605032 0.319046
vt 0.606317 0.305528
vt 0.610120 0.292529
vt 0.616297 0.280550
vt 0.624610 0.270050
vt 0.634739 0.261433
vt 0.646295 0.255029
vt 0.658835 0.251086
vt 0.671875 0.249755
vt 0.684915 0.251086
vt 0.697454 0.255029
vt 0.709011 0.261433
vt 0.719140 0.270050
vt 0.727453 0.280550
vt 0.733629 0.292529
vt 0.737433 0.305528
vt 0.738718 0.319046
vt 0.737433 0.332564
vt 0.733629 0.345562
vt 0.727453 0.357542
vt 0.719140 0.368042
vt 0.709011 0.376659
vt 0.697454 0.383062
vt 0.541929 0.994045
vt 0.541929 0.754028
vt 0.535644 0.994045
vt 0.535644 0.754028
vt 0.672205 0.389066
vt 0.685252 0.387700
vt 0.697799 0.383657
vt 0.709362 0.377091
vt 0.719497 0.368255
vt 0.727814 0.357489
vt 0.733995 0.345205
vt 0.737801 0.331876
vt 0.739086 0.318015
vt 0.737801 0.304154
vt 0.733995 0.290825
vt 0.727814 0.278542
vt 0.719497 0.267775
vt 0.709362 0.258939
vt 0.697799 0.252373
vt 0.685252 0.248330
vt 0.672205 0.246965
vt 0.659157 0.248330
vt 0.646610 0.252373
vt 0.635047 0.258939
vt 0.624912 0.267775
vt 0.616595 0.278542
vt 0.610414 0.290825
vt 0.606609 0.304154
vt 0.605323 0.318015
vt 0.606609 0.331876
vt 0.610414 0.345205
vt 0.616595 0.357489
vt 0.624912 0.368255
vt 0.635047 0.377091
vt 0.646610 0.383657
vt 0.659157 0.387700
vt 0.747574 0.746901
vt 0.997574 0.746901
vt 0.997574 0.996901
vt 0.747574 0.996901
vt 0.747047 0.747613
vt 0.997047 0.747613
vt 0.997047 0.997613
vt 0.747047 0.997613
vt 0.747047 0.746582
vt 0.997047 0.746582
vt 0.997047 0.996582
vt 0.747047 0.996582
vt 0.747218 0.750000
vt 0.997218 0.750000
vt 0.997218 1.000000
vt 0.747218 1.000000
vt 0.745718 0.746078
vt 0.995718 0.746078
vt 0.995718 0.996078
vt 0.745718 0.996078
vt 0.745915 0.747256
vt 0.995915 0.747256
vt 0.995915 0.997256
vt 0.745915 0.997256
vt 0.747047 0.746555
vt 0.997047 0.746555
vt 0.997047 0.996555
vt 0.747047 0.996555
vt 0.746582 0.746582
vt 0.996582 0.746582
vt 0.996582 0.996582
vt 0.746582 0.996582
vt 0.746094 0.746481
vt 0.996094 0.746481
vt 0.996094 0.996481
vt 0.746094 0.996481
vt 0.747559 0.747070
vt 0.997559 0.747070
vt 0.997559 0.997070
vt 0.747559 0.997070
vt 0.747578 0.746481
vt 0.997578 0.746481
vt 0.997578 0.996481
vt 0.747578 0.996481
vt 0.746809 0.746078
vt 0.996809 0.746078
vt 0.996809 0.996078
vt 0.746809 0.996078
vt 0.747047 0.747790
vt 0.997047 0.747790
vt 0.997047 0.997790
vt 0.747047 0.997790
vt 0.745963 0.746463
vt 0.995963 0.746463
vt 0.995963 0.996463
vt 0.745963 0.996463
vt 0.745497 0.746481
vt 0.995497 0.746481
vt 0.995497 0.996481
vt 0.745497 0.996481
vt 0.747047 0.750000
vt 0.997047 0.750000
vt 0.997047 1.000000
vt 0.747047 1.000000
vt 0.747202 0.746481
vt 0.997202 0.746481
vt 0.997202 0.996481
vt 0.747202 0.996481
vt 0.746094 0.746348
vt 0.996094 0.746348
vt 0.996094 0.996348
vt 0.746094 0.996348
vt 0.747435 0.746807
vt 0.997435 0.746807
vt 0.997435 0.996807
vt 0.747435 0.996807
vt 0.748047 0.748047
vt 0.998047 0.748047
vt 0.998047 0.998047
vt 0.748047 0.998047
vt 0.746578 0.746693
vt 0.996578 0.746693
vt 0.996578 0.996693
vt 0.746578 0.996693
vt 0.746578 0.750000
vt 0.996578 0.750000
vt 0.996578 1.000000
vt 0.746578 1.000000
vt 0.746668 0.748031
vt 0.996668 0.748031
vt 0.996668 0.998031
vt 0.746668 0.998031
vt 0.746809 0.747543
vt 0.996809 0.747543
vt 0.996809 0.997543
vt 0.746809 0.997543
vt 0.746388 0.747195
vt 0.996388 0.747195
vt 0.996388 0.997195
vt 0.746388 0.997195
vt 0.746578 0.747693
vt 0.996578 0.747693
vt 0.996578 0.997693
vt 0.746578 0.997693
vt 0.746094 0.747217
vt 0.996094 0.747217
vt 0.996094 0.997217
vt 0.746094 0.997217
vt 0.748047 0.748154
vt 0.998047 0.748154
vt 0.998047 0.998154
vt 0.748047 0.998154
vt 0.746094 0.746094
vt 0.996094 0.746094
vt 0.996094 0.996094
vt 0.746094 0.996094
vt 0.745578 0.746078
vt 0.995578 0.746078
vt 0.995578 0.996078
vt 0.745578 0.996078
s 0
usemtl Material
f 1/1/1 2/2/1 4/3/1 3/4/1
f 3/4/2 4/3/2 6/5/2 5/6/2
f 5/6/3 6/5/3 8/7/3 7/8/3
f 7/8/4 8/7/4 10/9/4 9/10/4
f 9/10/5 10/9/5 12/11/5 11/12/5
f 11/12/6 12/11/6 14/13/6 13/14/6
f 13/14/7 14/13/7 16/15/7 15/16/7
f 15/16/8 16/15/8 18/17/8 17/18/8
f 17/18/9 18/17/9 20/19/9 19/20/9
f 19/20/10 20/19/10 22/21/10 21/22/10
f 21/22/11 22/21/11 24/23/11 23/24/11
f 23/24/12 24/23/12 26/25/12 25/26/12
f 25/26/13 26/25/13 28/27/13 27/28/13
f 27/28/14 28/27/14 30/29/14 29/30/14
f 29/30/15 30/29/15 32/31/15 31/32/15
f 31/32/16 32/31/16 34/33/16 33/34/16
f 33/34/17 34/33/17 36/35/17 35/36/17
f 35/36/18 36/35/18 38/37/18 37/38/18
f 37/38/19 38/37/19 40/39/19 39/40/19
f 39/40/20 40/39/20 42/41/20 41/42/20
f 41/42/21 42/41/21 44/43/21 43/44/21
f 43/44/22 44/43/22 46/45/22 45/46/22
f 45/46/23 46/45/23 48/47/23 47/48/23
f 47/48/24 48/47/24 50/49/24 49/50/24
f 49/50/25 50/49/25 52/51/25 51/52/25
f 51/52/26 52/51/26 54/53/26 53/54/26
f 53/54/27 54/53/27 56/55/27 55/56/27
f 55/56/28 56/55/28 58/57/28 57/58/28
f 57/58/29 58/57/29 60/59/29 59/60/29
f 59/60/30 60/59/30 62/61/30 61/62/30
f 4/63/31 2/64/31 64/65/31 62/66/31 60/67/31 58/68/31 56/69/31 54/70/31 52/71/31 50/72/31 48/73/31 46/74/31 44/75/31 42/76/31 40/77/31 38/78/31 36/79/31 34/80/31 32/81/31 30/82/31 28/83/31 26/84/31 24/85/31 22/86/31 20/87/31 18/88/31 16/89/31 14/90/31 12/91/31 10/92/31 8/93/31 6/94/31
f 61/62/32 62/61/32 64/95/32 63/96/32
f 63/96/33 64/95/33 2/97/33 1/98/33
f 1/99/34 3/100/34 5/101/34 7/102/34 9/103/34 11/104/34 13/105/34 15/106/34 17/107/34 19/108/34 21/109/34 23/110/34 25/111/34 27/112/34 29/113/34 31/114/34 33/115/34 35/116/34 37/117/34 39/118/34 41/119/34 43/120/34 45/121/34 47/122/34 49/123/34 51/124/34 53/125/34 55/126/34 57/127/34 59/128/34 61/129/34 63/130/34
f 65/131/35 66/132/35 68/133/35 67/134/35
f 67/135/36 68/136/36 72/137/36 71/138/36
f 71/139/37 72/140/37 70/141/37 69/142/37
f 69/143/38 70/144/38 66/145/38 65/146/38
f 67/147/34 71/148/34 69/149/34 65/150/34
f 72/151/31 68/152/31 66/153/31 70/154/31
f 73/155/31 74/156/31 76/157/31 75/158/31
f 75/159/36 76/160/36 80/161/36 79/162/36
f 79/163/34 80/164/34 78/165/34 77/166/34
f 77/167/38 78/168/38 74/169/38 73/170/38
f 75/171/35 79/172/35 77/173/35 73/174/35
f 80/175/37 76/176/37 74/177/37 78/178/37
f 81/179/34 82/180/34 84/181/34 83/182/34
f 83/183/36 84/184/36 88/185/36 87/186/36
f 87/187/31 88/188/31 86/189/31 85/190/31
f 85/191/38 86/192/38 82/193/38 81/194/38
f 83/195/37 87/196/37 85/197/37 81/198/37
f 88/199/35 84/200/35 82/201/35 86/202/35
f 89/203/31 90/204/31 92/205/31 91/206/31
f 91/207/37 92/208/37 96/209/37 95/210/37
f 95/211/34 96/212/34 94/213/34 93/214/34
f 93/215/35 94/216/35 90/217/35 89/218/35
f 91/219/36 95/220/36 93/221/36 89/222/36
f 96/223/38 92/224/38 90/225/38 94/226/38
f 97/227/34 98/228/34 100/229/34 99/230/34
f 99/231/39 100/232/39 104/233/39 103/234/39
f 103/235/31 104/236/31 102/237/31 101/238/31
f 101/239/40 102/240/40 98/241/40 97/242/40
f 99/243/41 103/244/41 101/245/41 97/246/41
f 104/247/42 100/248/42 98/249/42 102/250/42
