# Blender 3.6.2
# www.blender.org
mtllib DeceBalus_End_Objects.mtl
o Cube.032
v 2.500000 -0.500000 0.500000
v 2.500000 4.500000 0.500000
v 2.500000 -0.500000 -0.500000
v 2.500000 4.500000 -0.500000
v 3.500000 -0.500000 0.500000
v 3.500000 4.500000 0.500000
v 3.500000 -0.500000 -0.500000
v 3.500000 4.500000 -0.500000
vn -1.0000 -0.0000 -0.0000
vn -0.0000 -0.0000 -1.0000
vn 1.0000 -0.0000 -0.0000
vn -0.0000 -0.0000 1.0000
vn -0.0000 -1.0000 -0.0000
vn -0.0000 1.0000 -0.0000
vt 0.055082 0.883530
vt 0.076294 0.883530
vt 0.076294 0.908755
vt 0.055082 0.908755
vt 0.076294 0.933981
vt 0.055082 0.933981
vt 0.076294 0.959206
vt 0.055082 0.959206
vt 0.076294 0.984431
vt 0.055082 0.984431
vt 0.033869 0.933981
vt 0.033869 0.959206
vt 0.097507 0.933981
vt 0.097507 0.959206
s 0
usemtl Material.001
f 1/1/1 2/2/1 4/3/1 3/4/1
f 3/4/2 4/3/2 8/5/2 7/6/2
f 7/6/3 8/5/3 6/7/3 5/8/3
f 5/8/4 6/7/4 2/9/4 1/10/4
f 3/11/5 7/6/5 5/8/5 1/12/5
f 8/5/6 4/13/6 2/14/6 6/7/6
o Cube.033
v -3.500000 -0.500000 0.500000
v -3.500000 4.500000 0.500000
v -3.500000 -0.500000 -0.500000
v -3.500000 4.500000 -0.500000
v -2.500000 -0.500000 0.500000
v -2.500000 4.500000 0.500000
v -2.500000 -0.500000 -0.500000
v -2.500000 4.500000 -0.500000
vn -1.0000 -0.0000 -0.0000
vn -0.0000 -0.0000 -1.0000
vn 1.0000 -0.0000 -0.0000
vn -0.0000 -0.0000 1.0000
vn -0.0000 -1.0000 -0.0000
vn -0.0000 1.0000 -0.0000
vt 0.055082 0.883530
vt 0.076294 0.883530
vt 0.076294 0.908755
vt 0.055082 0.908755
vt 0.076294 0.933981
vt 0.055082 0.933981
vt 0.076294 0.959206
vt 0.055082 0.959206
vt 0.076294 0.984431
vt 0.055082 0.984431
vt 0.033869 0.933981
vt 0.033869 0.959206
vt 0.097507 0.933981
vt 0.097507 0.959206
s 0
usemtl Material.001
f 9/15/7 10/16/7 12/17/7 11/18/7
f 11/18/8 12/17/8 16/19/8 15/20/8
f 15/20/9 16/19/9 14/21/9 13/22/9
f 13/22/10 14/21/10 10/23/10 9/24/10
f 11/25/11 15/20/11 13/22/11 9/26/11
f 16/19/12 12/27/12 10/28/12 14/21/12
o Cube.034
v -2.500000 0.000000 8.375000
v -2.500000 0.000000 7.625000
v -0.500000 2.000000 8.375000
v -0.500000 2.000000 7.625000
v -2.319932 1.000000 8.375000
v -2.319932 1.000000 7.625000
v -0.676361 1.203420 7.625000
v -0.676361 1.203420 8.375000
v -2.093148 1.500000 8.375000
v -2.093148 1.500000 7.625000
v -0.566478 1.682199 7.625000
v -0.566478 1.682199 8.375000
v -1.500000 0.000000 7.625000
v -1.093148 2.000000 7.625000
v -1.500000 0.000000 8.375000
v -1.093148 2.000000 8.375000
v -1.319933 1.000000 8.375000
v -1.319933 1.000000 7.625000
v -1.093148 1.500000 8.375000
v -1.093148 1.500000 7.625000
v -2.000000 0.000000 7.625000
v -1.593148 2.000000 8.375000
v -1.819933 1.000000 8.375000
v -1.593148 1.500000 8.375000
v -1.593148 2.000000 7.625000
v -2.000000 0.000000 8.375000
v -1.819933 1.000000 7.625000
v -1.593148 1.500000 7.625000
v -2.409966 0.500000 7.625000
v -0.701183 0.801602 7.625000
v -0.701183 0.801602 8.375000
v -2.409966 0.500000 8.375000
v -1.409966 0.500000 7.625000
v -1.409966 0.500000 8.375000
v -1.909966 0.500000 7.625000
v -1.909966 0.500000 8.375000
v -0.796574 2.000000 7.625000
v -0.530304 0.000000 8.375000
v -0.909966 1.000000 7.625000
v -0.796574 1.500000 7.625000
v -0.530304 0.000000 7.625000
v -0.796574 2.000000 8.375000
v -0.909966 1.000000 8.375000
v -0.796574 1.500000 8.375000
v -0.954983 0.500000 8.375000
v -0.954983 0.500000 7.625000
v -0.656747 0.400801 8.375000
v -0.656747 0.400801 7.625000
vn -0.0000 -0.0000 -1.0000
vn 0.9788 -0.2047 -0.0000
vn -0.0000 -0.0000 1.0000
vn 0.9981 -0.0617 -0.0000
vn -0.9842 0.1772 -0.0000
vn 0.9747 -0.2237 -0.0000
vn -0.9107 0.4131 -0.0000
vn -0.0000 1.0000 -0.0000
vn -0.0000 -1.0000 -0.0000
vn -0.7071 0.7071 -0.0000
vn 0.9537 0.3009 -0.0000
vn 0.9939 0.1102 -0.0000
vt 0.070991 0.927674
vt 0.076294 0.927674
vt 0.076294 0.933981
vt 0.070991 0.933981
vt 0.076294 0.959206
vt 0.070991 0.959206
vt 0.070991 0.978125
vt 0.076294 0.978125
vt 0.070991 0.984431
vt 0.060385 0.978125
vt 0.065688 0.978125
vt 0.065688 0.984431
vt 0.060385 0.984431
vt 0.060385 0.933981
vt 0.065688 0.933981
vt 0.065688 0.959206
vt 0.060385 0.959206
vt 0.060385 0.927674
vt 0.065688 0.927674
vt 0.060385 0.883530
vt 0.065688 0.883530
vt 0.065688 0.908755
vt 0.060385 0.908756
vt 0.070991 0.883530
vt 0.070991 0.908755
vt 0.065688 0.915062
vt 0.070991 0.915062
vt 0.070991 0.921368
vt 0.065688 0.921368
vt 0.065688 0.965512
vt 0.070991 0.965512
vt 0.070991 0.971819
vt 0.065688 0.971819
vt 0.060385 0.915062
vt 0.060385 0.921368
vt 0.060385 0.965512
vt 0.060385 0.971818
vt 0.081598 0.933981
vt 0.086901 0.933981
vt 0.086901 0.959206
vt 0.081598 0.959206
vt 0.039172 0.933981
vt 0.044476 0.933981
vt 0.044476 0.959206
vt 0.039172 0.959206
vt 0.076294 0.965512
vt 0.076294 0.971819
vt 0.076294 0.915062
vt 0.076294 0.921368
vt 0.033869 0.933981
vt 0.033869 0.959206
vt 0.092204 0.933981
vt 0.092204 0.959206
vt 0.055082 0.971819
vt 0.055082 0.978125
vt 0.055082 0.908755
vt 0.055082 0.915062
vt 0.055082 0.965512
vt 0.055082 0.921368
vt 0.055082 0.883530
vt 0.055082 0.927674
vt 0.057733 0.930828
vt 0.055082 0.984431
vt 0.049779 0.933981
vt 0.049779 0.959206
vt 0.057733 0.962359
vt 0.055082 0.933981
s 0
usemtl Material.001
f 56/29/13 53/30/13 20/31/13 27/32/13
f 27/32/14 20/31/14 19/33/14 28/34/14
f 40/35/15 38/36/15 25/37/15
f 52/38/15 39/39/15 21/40/15 48/41/15
f 46/42/16 23/43/16 24/44/16 47/45/16
f 62/46/13 55/47/13 23/43/13 46/42/13
f 48/48/17 21/49/17 22/50/17 45/51/17
f 39/39/15 40/35/15 25/37/15 21/40/15
f 23/43/18 27/32/18 28/34/18 24/44/18
f 55/47/13 56/29/13 27/32/13 23/43/13
f 21/49/19 25/52/19 26/53/19 22/50/19
f 43/54/13 44/55/13 36/56/13 34/57/13
f 59/58/15 60/59/15 35/60/15 33/61/15
f 51/62/13 43/54/13 34/57/13 49/63/13
f 61/64/15 59/58/15 33/61/15 50/65/15
f 53/66/20 30/67/20 32/68/20 58/69/20
f 37/70/21 29/71/21 31/72/21 42/73/21
f 60/59/15 58/74/15 32/75/15 35/60/15
f 44/55/13 41/76/13 30/77/13 36/56/13
f 26/53/13 41/76/13 44/55/13
f 18/78/21 37/70/21 42/73/21 17/79/21
f 45/51/13 22/50/13 43/54/13 51/62/13
f 22/50/13 26/53/13 44/55/13 43/54/13
f 33/61/15 35/60/15 40/35/15 39/39/15
f 50/65/15 33/61/15 39/39/15 52/38/15
f 30/67/20 41/80/20 38/81/20 32/68/20
f 35/60/15 32/75/15 38/36/15 40/35/15
f 25/37/22 38/36/22 41/80/22 26/53/22
f 31/82/15 50/65/15 52/38/15 42/83/15
f 18/84/13 45/51/13 51/62/13 37/85/13
f 54/86/15 61/64/15 50/65/15 31/82/15
f 37/85/13 51/62/13 49/63/13 29/87/13
f 17/88/17 48/48/17 45/51/17 18/84/17
f 57/89/13 62/46/13 46/42/13 64/90/13
f 42/83/15 52/38/15 48/41/15 17/91/15
f 29/87/13 49/63/13 62/46/13 57/89/13
f 28/34/15 19/33/15 58/74/15 60/59/15
f 20/31/20 53/66/20 58/69/20 19/33/20
f 47/45/15 24/44/15 59/58/15 61/64/15
f 24/44/15 28/34/15 60/59/15 59/58/15
f 34/57/13 36/56/13 56/29/13 55/47/13
f 49/63/13 34/57/13 55/47/13 62/46/13
f 29/71/21 57/92/21 54/93/21 31/72/21
f 36/56/13 30/77/13 53/30/13 56/29/13
f 54/86/15 63/94/15 47/45/15 61/64/15
f 63/94/23 54/86/23 57/92/23 64/95/23
f 47/45/24 63/94/24 64/95/24 46/42/24
o Cube.035
v 2.500000 0.000000 7.625000
v 2.500000 0.000000 8.375000
v 0.500000 2.000000 7.625000
v 0.500000 2.000000 8.375000
v 2.319932 1.000000 7.625000
v 2.319933 1.000000 8.375000
v 0.676361 1.203420 8.375000
v 0.676361 1.203420 7.625000
v 2.093148 1.500000 7.625000
v 2.093148 1.500000 8.375000
v 0.566478 1.682199 8.375000
v 0.566478 1.682199 7.625000
v 1.500000 0.000000 8.375000
v 1.093148 2.000000 8.375000
v 1.500000 0.000000 7.625000
v 1.093148 2.000000 7.625000
v 1.319932 1.000000 7.625000
v 1.319933 1.000000 8.375000
v 1.093148 1.500000 7.625000
v 1.093148 1.500000 8.375000
v 2.000000 0.000000 8.375000
v 1.593148 2.000000 7.625000
v 1.819932 1.000000 7.625000
v 1.593148 1.500000 7.625000
v 1.593148 2.000000 8.375000
v 2.000000 0.000000 7.625000
v 1.819933 1.000000 8.375000
v 1.593148 1.500000 8.375000
v 2.409966 0.500000 8.375000
v 0.701183 0.801602 8.375000
v 0.701183 0.801602 7.625000
v 2.409966 0.500000 7.625000
v 1.409966 0.500000 8.375000
v 1.409966 0.500000 7.625000
v 1.909966 0.500000 8.375000
v 1.909966 0.500000 7.625000
v 0.796574 2.000000 8.375000
v 0.530304 0.000000 7.625000
v 0.909966 1.000000 8.375000
v 0.796574 1.500000 8.375000
v 0.530304 0.000000 8.375000
v 0.796574 2.000000 7.625000
v 0.909966 1.000000 7.625000
v 0.796574 1.500000 7.625000
v 0.954983 0.500000 7.625000
v 0.954983 0.500000 8.375000
v 0.656747 0.400801 7.625000
v 0.656747 0.400801 8.375000
vn -0.0000 -0.0000 1.0000
vn -0.9788 -0.2047 -0.0000
vn -0.0000 -0.0000 -1.0000
vn -0.9981 -0.0617 -0.0000
vn 0.9842 0.1772 -0.0000
vn -0.9747 -0.2237 -0.0000
vn 0.9107 0.4131 -0.0000
vn -0.0000 1.0000 -0.0000
vn -0.0000 -1.0000 -0.0000
vn 0.7071 0.7071 -0.0000
vn -0.9537 0.3009 -0.0000
vn -0.9939 0.1102 -0.0000
vt 0.070991 0.927674
vt 0.076294 0.927674
vt 0.076294 0.933981
vt 0.070991 0.933981
vt 0.076294 0.959206
vt 0.070991 0.959206
vt 0.070991 0.978125
vt 0.076294 0.978125
vt 0.070991 0.984431
vt 0.060385 0.978125
vt 0.065688 0.978125
vt 0.065688 0.984431
vt 0.060385 0.984431
vt 0.060385 0.933981
vt 0.065688 0.933981
vt 0.065688 0.959206
vt 0.060385 0.959206
vt 0.060385 0.927674
vt 0.065688 0.927674
vt 0.060385 0.883530
vt 0.065688 0.883530
vt 0.065688 0.908755
vt 0.060385 0.908756
vt 0.070991 0.883530
vt 0.070991 0.908755
vt 0.065688 0.915062
vt 0.070991 0.915062
vt 0.070991 0.921368
vt 0.065688 0.921368
vt 0.065688 0.965512
vt 0.070991 0.965512
vt 0.070991 0.971819
vt 0.065688 0.971819
vt 0.060385 0.915062
vt 0.060385 0.921368
vt 0.060385 0.965512
vt 0.060385 0.971818
vt 0.081598 0.933981
vt 0.086901 0.933981
vt 0.086901 0.959206
vt 0.081598 0.959206
vt 0.039172 0.933981
vt 0.044476 0.933981
vt 0.044476 0.959206
vt 0.039172 0.959206
vt 0.076294 0.965512
vt 0.076294 0.971819
vt 0.076294 0.915062
vt 0.076294 0.921368
vt 0.033869 0.933981
vt 0.033869 0.959206
vt 0.092204 0.933981
vt 0.092204 0.959206
vt 0.055082 0.971819
vt 0.055082 0.978125
vt 0.055082 0.908755
vt 0.055082 0.915062
vt 0.055082 0.965512
vt 0.055082 0.921368
vt 0.055082 0.883530
vt 0.055082 0.927674
vt 0.057733 0.930828
vt 0.055082 0.984431
vt 0.049779 0.933981
vt 0.049779 0.959206
vt 0.057733 0.962359
vt 0.055082 0.933981
s 0
usemtl Material.001
f 104/96/25 101/97/25 68/98/25 75/99/25
f 75/99/26 68/98/26 67/100/26 76/101/26
f 88/102/27 86/103/27 73/104/27
f 100/105/27 87/106/27 69/107/27 96/108/27
f 94/109/28 71/110/28 72/111/28 95/112/28
f 110/113/25 103/114/25 71/110/25 94/109/25
f 96/115/29 69/116/29 70/117/29 93/118/29
f 87/106/27 88/102/27 73/104/27 69/107/27
f 71/110/30 75/99/30 76/101/30 72/111/30
f 103/114/25 104/96/25 75/99/25 71/110/25
f 69/116/31 73/119/31 74/120/31 70/117/31
f 91/121/25 92/122/25 84/123/25 82/124/25
f 107/125/27 108/126/27 83/127/27 81/128/27
f 99/129/25 91/121/25 82/124/25 97/130/25
f 109/131/27 107/125/27 81/128/27 98/132/27
f 101/133/32 78/134/32 80/135/32 106/136/32
f 85/137/33 77/138/33 79/139/33 90/140/33
f 108/126/27 106/141/27 80/142/27 83/127/27
f 92/122/25 89/143/25 78/144/25 84/123/25
f 74/120/25 89/143/25 92/122/25
f 66/145/33 85/137/33 90/140/33 65/146/33
f 93/118/25 70/117/25 91/121/25 99/129/25
f 70/117/25 74/120/25 92/122/25 91/121/25
f 81/128/27 83/127/27 88/102/27 87/106/27
f 98/132/27 81/128/27 87/106/27 100/105/27
f 78/134/32 89/147/32 86/148/32 80/135/32
f 83/127/27 80/142/27 86/103/27 88/102/27
f 73/104/34 86/103/34 89/147/34 74/120/34
f 79/149/27 98/132/27 100/105/27 90/150/27
f 66/151/25 93/118/25 99/129/25 85/152/25
f 102/153/27 109/131/27 98/132/27 79/149/27
f 85/152/25 99/129/25 97/130/25 77/154/25
f 65/155/29 96/115/29 93/118/29 66/151/29
f 105/156/25 110/113/25 94/109/25 112/157/25
f 90/150/27 100/105/27 96/108/27 65/158/27
f 77/154/25 97/130/25 110/113/25 105/156/25
f 76/101/27 67/100/27 106/141/27 108/126/27
f 68/98/32 101/133/32 106/136/32 67/100/32
f 95/112/27 72/111/27 107/125/27 109/131/27
f 72/111/27 76/101/27 108/126/27 107/125/27
f 82/124/25 84/123/25 104/96/25 103/114/25
f 97/130/25 82/124/25 103/114/25 110/113/25
f 77/138/33 105/159/33 102/160/33 79/139/33
f 84/123/25 78/144/25 101/97/25 104/96/25
f 102/153/27 111/161/27 95/112/27 109/131/27
f 111/161/35 102/153/35 105/159/35 112/162/35
f 95/112/36 111/161/36 112/162/36 94/109/36
