# Blender 3.6.2
# www.blender.org
mtllib DeceBalus_MoverAuto_Arrow_Normal.mtl
o DeceBalus_Mover_Arrow_Normal.001
v 0.000000 -0.041709 0.500000
v -0.433013 -0.041709 -0.250000
v 0.433013 -0.041709 -0.250000
v 0.000000 0.041709 0.500000
v -0.433013 0.041709 -0.250000
v 0.433013 0.041709 -0.250000
vn -0.0000 -1.0000 -0.0000
vn -0.0000 1.0000 -0.0000
vn 0.8660 -0.0000 0.5000
vn -0.0000 -0.0000 -1.0000
vn -0.8660 -0.0000 0.5000
vt 0.844088 0.959969
vt 0.868695 0.900280
vt 0.819482 0.900280
s 0
usemtl Material.001
f 1/1/1 2/2/1 3/3/1
f 4/1/2 6/3/2 5/2/2
f 3/3/3 6/3/3 4/1/3 1/1/3
f 2/2/4 5/2/4 6/3/4 3/3/4
f 1/1/5 4/1/5 5/2/5 2/2/5
