# Blender 3.6.2
# www.blender.org
mtllib DeceBalus_Roller.mtl
o Circle
v 0.423248 -0.161628 0.066791
v 0.457503 0.010579 0.066791
v 0.179710 0.426326 0.066791
v 0.423248 0.182787 0.066791
v -0.007502 0.461065 -0.066791
v -0.179710 0.426811 -0.066791
v -0.325701 0.329263 -0.066791
v -0.423248 0.183272 -0.066791
v -0.457503 0.011065 -0.066791
v -0.423248 -0.161143 -0.066791
v -0.325701 -0.307134 -0.066791
v -0.179710 -0.404682 -0.066791
v -0.007502 -0.438936 -0.066791
v 0.164706 -0.404682 -0.066791
v 0.310696 -0.307134 -0.066791
v 0.408244 -0.161143 -0.066791
v 0.442498 0.011065 -0.066791
v 0.408244 0.183272 -0.066791
v 0.310696 0.329263 -0.066791
v 0.164706 0.426811 -0.066791
v 0.002078 0.222073 -0.114117
v -0.084026 0.204946 -0.114117
v -0.157022 0.156172 -0.114117
v -0.205796 0.083177 -0.114117
v -0.222923 -0.002927 -0.114117
v -0.205796 -0.089031 -0.114117
v -0.157022 -0.162026 -0.114117
v -0.084026 -0.210800 -0.114117
v 0.002078 -0.227927 -0.114117
v 0.088181 -0.210800 -0.114117
v 0.161177 -0.162026 -0.114117
v 0.209951 -0.089031 -0.114117
v 0.227078 -0.002927 -0.114117
v 0.209951 0.083177 -0.114117
v 0.161177 0.156172 -0.114117
v 0.088181 0.204946 -0.114117
v 0.002078 0.222073 -0.226617
v -0.084026 0.204946 -0.226617
v -0.157022 0.156172 -0.226617
v -0.205796 0.083177 -0.226617
v -0.222923 -0.002927 -0.226617
v -0.205796 -0.089031 -0.226617
v -0.157022 -0.162026 -0.226617
v -0.084026 -0.210800 -0.226617
v 0.002078 -0.227927 -0.226617
v 0.088181 -0.210800 -0.226617
v 0.161177 -0.162026 -0.226617
v 0.209951 -0.089031 -0.226617
v 0.227078 -0.002927 -0.226617
v 0.209951 0.083177 -0.226617
v 0.161177 0.156172 -0.226617
v 0.088181 0.204946 -0.226617
v -0.122399 -0.017771 -0.022392
v -0.022399 -0.117846 -0.022392
v 0.077601 -0.017568 -0.022392
v -0.022399 0.082432 -0.022392
v 0.022399 0.081947 0.022392
v 0.007502 0.460580 0.066791
v -0.077601 -0.018053 0.022392
v 0.022399 -0.118331 0.022392
v 0.122399 -0.018256 0.022392
v -0.088181 0.204461 0.226618
v -0.161177 0.155687 0.226618
v -0.209951 0.082692 0.226618
v -0.227078 -0.003412 0.226618
v -0.209951 -0.089516 0.226618
v -0.161177 -0.162511 0.226618
v 0.325701 0.328778 0.066791
v -0.088181 -0.211285 0.226618
v -0.002078 -0.228412 0.226618
v 0.084026 -0.211285 0.226618
v 0.157022 -0.162511 0.226618
v 0.205796 -0.089516 0.226618
v 0.222923 -0.003412 0.226618
v 0.205796 0.082692 0.226618
v 0.157022 0.155687 0.226618
v 0.084026 0.204461 0.226618
v -0.002078 0.221588 0.226618
v -0.088181 0.204461 0.114118
v -0.161177 0.155687 0.114118
v -0.209951 0.082692 0.114118
v -0.227078 -0.003412 0.114118
v -0.209951 -0.089516 0.114118
v -0.161177 -0.162511 0.114118
v -0.088181 -0.211285 0.114118
v -0.002078 -0.228412 0.114118
v 0.084026 -0.211285 0.114118
v 0.157022 -0.162511 0.114118
v 0.205796 -0.089516 0.114118
v 0.222923 -0.003412 0.114118
v 0.205796 0.082692 0.114118
v 0.157022 0.155687 0.114118
v 0.084026 0.204461 0.114118
v -0.002078 0.221588 0.114118
v -0.164706 0.426326 0.066791
v -0.310696 0.328778 0.066791
v -0.408244 0.182787 0.066791
v -0.442498 0.010579 0.066791
v -0.408244 -0.161628 0.066791
v -0.310696 -0.307619 0.066791
v -0.164706 -0.405167 0.066791
v 0.007502 -0.439421 0.066791
v 0.179710 -0.405167 0.066791
v 0.325701 -0.307619 0.066791
vn 0.1951 -0.9808 -0.0000
vn -0.5556 -0.8315 -0.0000
vn -0.1951 -0.9808 -0.0000
vn -0.1951 0.9808 -0.0000
vn 0.5556 -0.8315 -0.0000
vn -0.5556 0.8315 -0.0000
vn 0.8315 -0.5556 -0.0000
vn -0.8315 0.5556 -0.0000
vn 0.9808 -0.1951 -0.0000
vn -0.9808 0.1951 -0.0000
vn 0.9808 0.1951 -0.0000
vn -0.9808 -0.1951 -0.0000
vn 0.8315 0.5556 -0.0000
vn -0.8315 -0.5556 -0.0000
vn 0.5556 0.8315 -0.0000
vn 0.1951 0.9808 -0.0000
vn -0.3101 0.4640 -0.8298
vn 0.1105 0.5556 -0.8241
vn -0.4657 0.3112 -0.8284
vn -0.5551 0.1104 -0.8244
vn -0.5641 -0.1122 -0.8181
vn -0.4874 -0.3257 -0.8101
vn -0.3321 -0.4970 -0.8017
vn -0.1186 -0.5961 -0.7941
vn 0.1199 -0.6029 -0.7888
vn 0.3429 -0.5132 -0.7868
vn 0.5113 -0.3417 -0.7885
vn 0.5966 -0.1187 -0.7937
vn 0.5869 0.1167 -0.8012
vn 0.4880 0.3261 -0.8097
vn -0.1093 0.5495 -0.8283
vn 0.3199 0.4787 -0.8176
vn -0.5276 0.1049 -0.8430
vn -0.5130 -0.1020 -0.8523
vn 0.6787 0.1350 -0.7219
vn 0.6576 -0.1308 -0.7419
vn -0.4343 0.2902 -0.8527
vn -0.4021 -0.2687 -0.8753
vn 0.5356 0.3578 -0.7649
vn 0.4908 -0.3280 -0.8072
vn -0.1231 0.6190 -0.7757
vn 0.1296 0.6516 -0.7474
vn 0.3529 0.5282 -0.7723
vn -0.3064 0.4586 -0.8341
vn -0.3502 0.3492 -0.8691
vn 0.4153 0.4150 -0.8095
vn 0.1112 -0.5592 -0.8216
vn -0.1060 -0.5329 -0.8395
vn -0.2721 -0.4072 -0.8719
vn 0.3105 -0.4647 -0.8293
vn -0.3183 -0.3183 -0.8929
vn 0.3740 -0.3733 -0.8490
vn -0.0000 -0.0000 -1.0000
vn -0.4908 -0.3280 0.8072
vn 0.4021 -0.2687 0.8753
vn 0.5551 0.1104 0.8244
vn -0.6576 -0.1308 0.7419
vn -0.1105 0.5556 0.8241
vn 0.5130 -0.1020 0.8523
vn 0.1093 0.5495 0.8283
vn -0.5869 0.1167 0.8012
vn -0.5113 -0.3417 0.7885
vn -0.1199 -0.6029 0.7888
vn 0.4874 -0.3257 0.8101
vn -0.0000 -0.0000 1.0000
vn -0.3740 -0.3733 0.8490
vn 0.3183 -0.3183 0.8929
vn -0.3105 -0.4647 0.8293
vn 0.2721 -0.4072 0.8719
vn 0.1060 -0.5329 0.8395
vn -0.1112 -0.5592 0.8216
vn -0.4153 0.4150 0.8095
vn 0.3502 0.3492 0.8691
vn -0.3529 0.5282 0.7723
vn -0.1296 0.6516 0.7474
vn -0.4880 0.3261 0.8097
vn -0.3199 0.4787 0.8176
vn 0.3101 0.4640 0.8298
vn -0.5966 -0.1187 0.7937
vn -0.6787 0.1350 0.7219
vn 0.5641 -0.1122 0.8181
vn 0.3321 -0.4970 0.8017
vn -0.3429 -0.5132 0.7868
vn 0.4657 0.3112 0.8284
vn 0.1186 -0.5961 0.7941
vn 0.1231 0.6190 0.7757
vn -0.5356 0.3578 0.7649
vn 0.4343 0.2902 0.8527
vn 0.5276 0.1049 0.8430
vn 0.3064 0.4586 0.8341
vn -0.9748 0.1939 0.1102
vn -0.8277 0.5531 0.0950
vn -0.5544 0.8297 0.0653
vn -0.1950 0.9805 0.0255
vn 0.1951 0.9806 -0.0183
vn 0.5546 0.8300 -0.0593
vn 0.8280 0.5533 -0.0910
vn 0.9750 0.1939 -0.1088
vn 0.9748 -0.1939 -0.1102
vn 0.8277 -0.5531 -0.0950
vn 0.5544 -0.8297 -0.0653
vn -0.9750 -0.1939 0.1088
vn -0.8280 -0.5533 0.0910
vn -0.5546 -0.8300 0.0593
vn -0.1951 -0.9806 0.0183
vn 0.1950 -0.9805 -0.0255
vt 0.817425 0.758385
vt 0.817425 0.812888
vt 0.765734 0.812888
vt 0.765734 0.758385
vt 0.817425 0.813328
vt 0.817425 0.867831
vt 0.765734 0.867831
vt 0.765734 0.813328
vt 0.812622 0.767779
vt 0.812622 0.821866
vt 0.753780 0.821866
vt 0.753780 0.767779
vt 0.812622 0.822303
vt 0.812622 0.876390
vt 0.753780 0.876390
vt 0.753780 0.822303
vt 0.871939 0.767779
vt 0.871939 0.821866
vt 0.813097 0.821866
vt 0.813097 0.767779
vt 0.871939 0.822303
vt 0.871939 0.876390
vt 0.813097 0.876390
vt 0.813097 0.822303
vt 0.812622 0.876826
vt 0.812622 0.930914
vt 0.753780 0.930914
vt 0.753780 0.876826
vt 0.931256 0.767779
vt 0.931256 0.821866
vt 0.872414 0.821866
vt 0.872414 0.767779
vt 0.931256 0.822303
vt 0.931256 0.876390
vt 0.872414 0.876390
vt 0.872414 0.822303
vt 0.871939 0.876826
vt 0.871939 0.930914
vt 0.813097 0.930914
vt 0.813097 0.876826
vt 0.931256 0.876826
vt 0.931256 0.930914
vt 0.872414 0.930914
vt 0.872414 0.876826
vt 0.812622 0.931350
vt 0.812622 0.985437
vt 0.753780 0.985437
vt 0.753780 0.931350
vt 0.990573 0.767779
vt 0.990573 0.821866
vt 0.931731 0.821866
vt 0.931731 0.767779
vt 0.871939 0.931350
vt 0.871939 0.985437
vt 0.813097 0.985437
vt 0.813097 0.931350
vt 0.990573 0.822303
vt 0.990573 0.876390
vt 0.931731 0.876390
vt 0.931731 0.822303
vt 0.931256 0.931350
vt 0.931256 0.985437
vt 0.872414 0.985437
vt 0.872414 0.931350
vt 0.990573 0.876826
vt 0.990573 0.930914
vt 0.931731 0.930914
vt 0.931731 0.876826
vt 0.990573 0.931350
vt 0.990573 0.985437
vt 0.931731 0.985437
vt 0.931731 0.931350
vt 0.451375 0.753740
vt 0.451375 0.864673
vt 0.436922 0.864673
vt 0.436922 0.753740
vt 0.392926 0.752322
vt 0.392926 0.864051
vt 0.379558 0.864051
vt 0.379558 0.752322
vt 0.465944 0.753740
vt 0.465944 0.864673
vt 0.451491 0.864673
vt 0.451491 0.753740
vt 0.869533 0.758385
vt 0.869533 0.812888
vt 0.817842 0.812888
vt 0.817842 0.758385
vt 0.406402 0.752322
vt 0.406402 0.864051
vt 0.393034 0.864051
vt 0.393034 0.752322
vt 0.328983 0.753977
vt 0.328983 0.864778
vt 0.313377 0.864778
vt 0.313377 0.753977
vt 0.480513 0.753740
vt 0.480513 0.864673
vt 0.466061 0.864673
vt 0.466061 0.753740
vt 0.419878 0.752322
vt 0.419878 0.864051
vt 0.406510 0.864051
vt 0.406510 0.752322
vt 0.344715 0.753977
vt 0.344715 0.864778
vt 0.329109 0.864778
vt 0.329109 0.753977
vt 0.869533 0.813328
vt 0.869533 0.867831
vt 0.817842 0.867831
vt 0.817842 0.813328
vt 0.360447 0.753977
vt 0.360447 0.864778
vt 0.344841 0.864778
vt 0.344841 0.753977
vt 0.262456 0.753617
vt 0.262456 0.865737
vt 0.247022 0.865737
vt 0.247022 0.753617
vt 0.495083 0.753740
vt 0.495083 0.864673
vt 0.480630 0.864673
vt 0.480630 0.753740
vt 0.278015 0.753617
vt 0.278015 0.865737
vt 0.262581 0.865737
vt 0.262581 0.753617
vt 0.433353 0.752322
vt 0.433353 0.864051
vt 0.419986 0.864051
vt 0.419986 0.752322
vt 0.293574 0.753617
vt 0.293574 0.865737
vt 0.278139 0.865737
vt 0.278139 0.753617
vt 0.376179 0.753977
vt 0.376179 0.864778
vt 0.360573 0.864778
vt 0.360573 0.753977
vt 0.309133 0.753617
vt 0.309133 0.865737
vt 0.293698 0.865737
vt 0.293698 0.753617
vt 0.467338 0.005796
vt 0.467338 0.225315
vt 0.220341 0.225315
vt 0.248999 0.224095
vt 0.248999 0.005555
vt 0.002002 0.224095
vt 0.249410 0.226712
vt 0.249410 0.004552
vt 0.002413 0.226712
vt 0.248999 0.003837
vt 0.248999 0.227839
vt 0.002002 0.227839
vt 0.253273 0.005456
vt 0.253273 0.228370
vt 0.006276 0.228370
vt 0.469626 0.222727
vt 0.469626 0.004757
vt 0.222629 0.222727
vt 0.458224 0.003629
vt 0.211227 0.225842
vt 0.458224 0.225842
vt 0.214479 0.228180
vt 0.461476 0.004468
vt 0.461476 0.228180
vt 0.490963 0.003747
vt 0.249677 0.235263
vt 0.490963 0.235263
vt 0.248235 0.237939
vt 0.248235 0.002817
vt 0.006423 0.237939
vt 0.492988 0.002817
vt 0.492988 0.237939
vt 0.251175 0.237939
vt 0.245150 0.005216
vt 0.011723 0.230729
vt 0.245150 0.230729
vt 0.002002 0.003333
vt 0.002002 0.250330
vt 0.248999 0.003333
vt 0.249742 0.001001
vt 0.249742 0.247998
vt 0.496739 0.001001
vt 0.252002 0.250152
vt 0.498999 0.003155
vt 0.498999 0.250152
vt 0.247998 0.002514
vt 0.247998 0.249511
vt 0.001001 0.249511
vt 0.498999 0.003149
vt 0.498999 0.237776
vt 0.252002 0.237776
vt 0.357664 0.237489
vt 0.357664 0.003768
vt 0.110667 0.237489
vt 0.251001 0.001817
vt 0.497998 0.001817
vt 0.251001 0.248814
vt 0.247998 0.002332
vt 0.001001 0.249329
vt 0.001001 0.002332
vt 0.722515 0.755279
vt 0.522874 0.755279
vt 0.522874 0.986173
vt 0.722515 0.986173
vt 0.298999 0.216914
vt 0.102002 0.000773
vt 0.102002 0.216914
vt 0.396513 0.202126
vt 0.396513 0.001671
vt 0.199516 0.202126
vt 0.451215 0.752886
vt 0.451215 0.865439
vt 0.436285 0.865439
vt 0.436285 0.752886
vt 0.398999 0.001354
vt 0.398999 0.212491
vt 0.202002 0.212491
vt 0.392518 0.752571
vt 0.392518 0.864927
vt 0.378777 0.864927
vt 0.378777 0.752571
vt 0.050471 0.204202
vt 0.050471 0.001547
vt 0.247468 0.204202
vt 0.817425 0.868271
vt 0.817425 0.922773
vt 0.765734 0.922773
vt 0.765734 0.868271
vt 0.466266 0.752886
vt 0.466266 0.865439
vt 0.451335 0.865439
vt 0.451335 0.752886
vt 0.921641 0.758385
vt 0.921641 0.812888
vt 0.869950 0.812888
vt 0.869950 0.758385
vt 0.406370 0.752571
vt 0.406370 0.864927
vt 0.392629 0.864927
vt 0.392629 0.752571
vt 0.921641 0.813328
vt 0.921641 0.867831
vt 0.869950 0.867831
vt 0.869950 0.813328
vt 0.328702 0.752887
vt 0.328702 0.864753
vt 0.313132 0.864753
vt 0.313132 0.752887
vt 0.869533 0.868271
vt 0.869533 0.922773
vt 0.817842 0.922773
vt 0.817842 0.868271
vt 0.481317 0.752886
vt 0.481317 0.865439
vt 0.466386 0.865439
vt 0.466386 0.752886
vt 0.921641 0.868271
vt 0.921641 0.922773
vt 0.869950 0.922773
vt 0.869950 0.868271
vt 0.420222 0.752571
vt 0.420222 0.864927
vt 0.406481 0.864927
vt 0.406481 0.752571
vt 0.521622 0.988059
vt 0.521343 0.754404
vt 0.722393 0.754491
vt 0.722597 0.988059
vt 0.491102 0.000765
vt 0.294105 0.217582
vt 0.294105 0.000765
vt 0.198141 0.000792
vt 0.001144 0.000792
vt 0.198141 0.208679
vt 0.496655 0.217814
vt 0.496655 0.000097
vt 0.299658 0.217814
vt 0.122712 0.001185
vt 0.122712 0.217005
vt 0.319709 0.217005
vt 0.496082 0.000194
vt 0.496082 0.219174
vt 0.299085 0.219174
vt 0.479016 0.218971
vt 0.282019 -0.000237
vt 0.282019 0.218971
vt 0.198386 0.000953
vt 0.198386 0.210002
vt 0.001390 0.000953
vt 0.291642 -0.000523
vt 0.291642 0.218381
vt 0.488639 -0.000523
vt 0.397998 0.001750
vt 0.397998 0.204669
vt 0.201001 0.204669
vt 0.198999 0.199409
vt 0.198999 0.002412
vt 0.002002 0.199409
vt 0.817425 0.923213
vt 0.817425 0.977716
vt 0.765734 0.977716
vt 0.765734 0.923213
vt 0.973749 0.758385
vt 0.973749 0.812888
vt 0.922058 0.812888
vt 0.922058 0.758385
vt 0.344398 0.752887
vt 0.344398 0.864753
vt 0.328828 0.864753
vt 0.328828 0.752887
vt 0.360095 0.752887
vt 0.360095 0.864753
vt 0.344524 0.864753
vt 0.344524 0.752887
vt 0.263415 0.753134
vt 0.263415 0.865200
vt 0.247862 0.865200
vt 0.247862 0.753134
vt 0.869533 0.923213
vt 0.869533 0.977716
vt 0.817842 0.977716
vt 0.817842 0.923213
vt 0.496368 0.752886
vt 0.496368 0.865439
vt 0.481437 0.865439
vt 0.481437 0.752886
vt 0.197998 0.200301
vt 0.197998 0.003304
vt 0.001001 0.200301
vt 0.279095 0.753134
vt 0.279095 0.865200
vt 0.263541 0.865200
vt 0.263541 0.753134
vt 0.434075 0.752571
vt 0.434075 0.864927
vt 0.420333 0.864927
vt 0.420333 0.752571
vt 0.294774 0.753134
vt 0.294774 0.865200
vt 0.279220 0.865200
vt 0.279220 0.753134
vt 0.375791 0.752887
vt 0.375791 0.864753
vt 0.360220 0.864753
vt 0.360220 0.752887
vt 0.973749 0.813328
vt 0.973749 0.867831
vt 0.922058 0.867831
vt 0.922058 0.813328
vt 0.310453 0.753134
vt 0.310453 0.865200
vt 0.294900 0.865200
vt 0.294900 0.753134
vt 0.478459 0.002002
vt 0.281462 0.198999
vt 0.478459 0.198999
vt 0.487709 0.002633
vt 0.290712 0.199630
vt 0.487709 0.199630
vt 0.921641 0.923213
vt 0.921641 0.977716
vt 0.869950 0.977716
vt 0.869950 0.923213
vt 0.067327 0.001023
vt 0.067327 0.207415
vt 0.264324 0.207415
vt 0.973749 0.868271
vt 0.973749 0.922773
vt 0.922058 0.922773
vt 0.922058 0.868271
vt 0.397998 0.001471
vt 0.397998 0.205133
vt 0.201001 0.205133
vt 0.973749 0.923213
vt 0.973749 0.977716
vt 0.922058 0.977716
vt 0.922058 0.923213
vt 0.067975 -0.001400
vt 0.264972 0.224954
vt 0.067975 0.224954
vt 0.566063 0.761519
vt 0.566063 0.817815
vt 0.511615 0.817815
vt 0.511615 0.761519
vt 0.566063 0.818270
vt 0.566063 0.874566
vt 0.511615 0.874566
vt 0.511615 0.818270
vt 0.620951 0.761519
vt 0.620951 0.817815
vt 0.566503 0.817815
vt 0.566503 0.761519
vt 0.620951 0.818270
vt 0.620951 0.874566
vt 0.566503 0.874566
vt 0.566503 0.818270
vt 0.566063 0.875021
vt 0.566063 0.931317
vt 0.511615 0.931317
vt 0.511615 0.875021
vt 0.675838 0.761519
vt 0.675838 0.817815
vt 0.621390 0.817815
vt 0.621390 0.761519
vt 0.675838 0.818270
vt 0.675838 0.874566
vt 0.621390 0.874566
vt 0.621390 0.818270
vt 0.620951 0.875021
vt 0.620951 0.931317
vt 0.566503 0.931317
vt 0.566503 0.875021
vt 0.675838 0.875021
vt 0.675838 0.931317
vt 0.621390 0.931317
vt 0.621390 0.875021
vt 0.566063 0.931772
vt 0.566063 0.988068
vt 0.511615 0.988068
vt 0.511615 0.931772
vt 0.730725 0.761519
vt 0.730725 0.817815
vt 0.676277 0.817815
vt 0.676277 0.761519
vt 0.620951 0.931772
vt 0.620951 0.988068
vt 0.566503 0.988068
vt 0.566503 0.931772
vt 0.730725 0.818270
vt 0.730725 0.874566
vt 0.676277 0.874566
vt 0.676277 0.818270
vt 0.675838 0.931772
vt 0.675838 0.988068
vt 0.621390 0.988068
vt 0.621390 0.931772
vt 0.730725 0.875021
vt 0.730725 0.931317
vt 0.676277 0.931317
vt 0.676277 0.875021
vt 0.730725 0.931772
vt 0.730725 0.988068
vt 0.676277 0.988068
vt 0.676277 0.931772
s 0
usemtl Material
f 94/1/1 78/2/1 62/3/1 79/4/1
f 92/5/2 76/6/2 77/7/2 93/8/2
f 22/9/1 38/10/1 37/11/1 21/12/1
f 21/13/3 37/14/3 52/15/3 36/16/3
f 30/17/4 46/18/4 45/19/4 29/20/4
f 23/21/5 39/22/5 38/23/5 22/24/5
f 31/25/6 47/26/6 46/27/6 30/28/6
f 24/29/7 40/30/7 39/31/7 23/32/7
f 32/33/8 48/34/8 47/35/8 31/36/8
f 25/37/9 41/38/9 40/39/9 24/40/9
f 33/41/10 49/42/10 48/43/10 32/44/10
f 26/45/11 42/46/11 41/47/11 25/48/11
f 34/49/12 50/50/12 49/51/12 33/52/12
f 27/53/13 43/54/13 42/55/13 26/56/13
f 35/57/14 51/58/14 50/59/14 34/60/14
f 28/61/15 44/62/15 43/63/15 27/64/15
f 36/65/2 52/66/2 51/67/2 35/68/2
f 29/69/16 45/70/16 44/71/16 28/72/16
f 6/73/17 38/74/17 39/75/17 7/76/17
f 20/77/18 52/78/18 37/79/18 5/80/18
f 7/81/19 39/82/19 40/83/19 8/84/19
f 85/85/16 69/86/16 70/87/16 86/88/16
f 8/89/20 40/90/20 41/91/20 9/92/20
f 9/93/21 41/94/21 42/95/21 10/96/21
f 10/97/22 42/98/22 43/99/22 11/100/22
f 11/101/23 43/102/23 44/103/23 12/104/23
f 12/105/24 44/106/24 45/107/24 13/108/24
f 93/109/3 77/110/3 78/111/3 94/112/3
f 13/113/25 45/114/25 46/115/25 14/116/25
f 14/117/26 46/118/26 47/119/26 15/120/26
f 15/121/27 47/122/27 48/123/27 16/124/27
f 16/125/28 48/126/28 49/127/28 17/128/28
f 17/129/29 49/130/29 50/131/29 18/132/29
f 18/133/30 50/134/30 51/135/30 19/136/30
f 5/137/31 37/138/31 38/139/31 6/140/31
f 19/141/32 51/142/32 52/143/32 20/144/32
f 55/145/33 33/146/33 32/147/33
f 33/148/34 55/149/34 34/150/34
f 25/151/35 53/152/35 26/153/35
f 53/154/36 25/155/36 24/156/36
f 55/157/37 32/158/37 31/159/37
f 34/160/38 55/161/38 35/162/38
f 53/163/39 27/164/39 26/165/39
f 23/166/40 53/167/40 24/168/40
f 54/169/41 30/170/41 29/171/41
f 28/172/42 54/173/42 29/174/42
f 54/175/43 28/176/43 27/177/43
f 54/178/44 31/179/44 30/180/44
f 55/181/45 31/182/45 54/183/45
f 54/184/46 27/185/46 53/186/46
f 21/187/47 56/188/47 22/189/47
f 56/190/48 21/191/48 36/192/48
f 56/193/49 36/194/49 35/195/49
f 22/196/50 56/197/50 23/198/50
f 55/199/51 56/200/51 35/201/51
f 53/202/52 23/203/52 56/204/52
f 55/205/53 54/206/53 53/207/53 56/208/53
f 92/209/54 61/210/54 91/211/54
f 81/212/55 59/213/55 80/214/55
f 4/215/56 75/216/56 74/217/56 2/218/56
f 61/219/57 90/220/57 91/221/57
f 95/222/58 62/223/58 78/224/58 58/225/58
f 82/226/59 59/227/59 81/228/59
f 86/229/4 70/230/4 71/231/4 87/232/4
f 58/233/60 78/234/60 77/235/60 3/236/60
f 80/237/7 63/238/7 64/239/7 81/240/7
f 98/241/61 65/242/61 64/243/61 97/244/61
f 81/245/9 64/246/9 65/247/9 82/248/9
f 100/249/62 67/250/62 66/251/62 99/252/62
f 82/253/11 65/254/11 66/255/11 83/256/11
f 102/257/63 70/258/63 69/259/63 101/260/63
f 83/261/13 66/262/13 67/263/13 84/264/13
f 1/265/64 73/266/64 72/267/64 104/268/64
f 59/269/65 60/270/65 61/271/65 57/272/65
f 61/273/66 92/274/66 57/275/66
f 59/276/67 57/277/67 80/278/67
f 93/279/68 57/280/68 92/281/68
f 57/282/69 79/283/69 80/284/69
f 57/285/70 94/286/70 79/287/70
f 94/288/71 57/289/71 93/290/71
f 60/291/72 88/292/72 61/293/72
f 59/294/73 84/295/73 60/296/73
f 60/297/74 87/298/74 88/299/74
f 87/300/75 60/301/75 86/302/75
f 87/303/6 71/304/6 72/305/6 88/306/6
f 88/307/8 72/308/8 73/309/8 89/310/8
f 97/311/76 64/312/76 63/313/76 96/314/76
f 96/315/77 63/316/77 62/317/77 95/318/77
f 3/319/78 77/320/78 76/321/78 68/322/78
f 89/323/10 73/324/10 74/325/10 90/326/10
f 99/327/79 66/328/79 65/329/79 98/330/79
f 90/331/80 61/332/80 89/333/80
f 2/334/81 74/335/81 73/336/81 1/337/81
f 104/338/82 72/339/82 71/340/82 103/341/82
f 101/342/83 69/343/83 67/344/83 100/345/83
f 68/346/84 76/347/84 75/348/84 4/349/84
f 79/350/5 62/351/5 63/352/5 80/353/5
f 103/354/85 71/355/85 70/356/85 102/357/85
f 60/358/86 85/359/86 86/360/86
f 61/361/87 88/362/87 89/363/87
f 90/364/12 74/365/12 75/366/12 91/367/12
f 59/368/88 83/369/88 84/370/88
f 91/371/14 75/372/14 76/373/14 92/374/14
f 59/375/89 82/376/89 83/377/89
f 84/378/15 67/379/15 69/380/15 85/381/15
f 60/382/90 84/383/90 85/384/90
f 9/385/91 98/386/91 97/387/91 8/388/91
f 8/389/92 97/390/92 96/391/92 7/392/92
f 7/393/93 96/394/93 95/395/93 6/396/93
f 6/397/94 95/398/94 58/399/94 5/400/94
f 5/401/95 58/402/95 3/403/95 20/404/95
f 20/405/96 3/406/96 68/407/96 19/408/96
f 19/409/97 68/410/97 4/411/97 18/412/97
f 18/413/98 4/414/98 2/415/98 17/416/98
f 17/417/99 2/418/99 1/419/99 16/420/99
f 104/421/100 15/422/100 16/423/100 1/424/100
f 15/425/101 104/426/101 103/427/101 14/428/101
f 10/429/102 99/430/102 98/431/102 9/432/102
f 99/433/103 10/434/103 11/435/103 100/436/103
f 12/437/104 101/438/104 100/439/104 11/440/104
f 13/441/105 102/442/105 101/443/105 12/444/105
f 14/445/106 103/446/106 102/447/106 13/448/106
