# Blender 3.6.2
# www.blender.org
mtllib DeceBalus_Riser_Base.mtl
o Riser.Base
v 1.000000 -1.000000 -1.000000
v 1.000000 -1.000000 1.000000
v -1.000000 -1.000000 -1.000000
v -1.000000 -1.000000 1.000000
v 0.699015 1.000000 -0.699015
v 1.000000 0.699015 -1.000000
v 0.699015 1.000000 0.699015
v 1.000000 0.699015 1.000000
v -0.699015 1.000000 -0.699015
v -1.000000 0.699015 -1.000000
v -0.699015 1.000000 0.699015
v -1.000000 0.699015 1.000000
vn -0.0000 -0.0000 1.0000
vn -1.0000 -0.0000 -0.0000
vn -0.0000 -1.0000 -0.0000
vn -0.0000 1.0000 -0.0000
vn 1.0000 -0.0000 -0.0000
vn -0.0000 0.7071 0.7071
vn 0.7071 0.7071 -0.0000
vn -0.7071 0.7071 -0.0000
vn -0.0000 0.7071 -0.7071
vn -0.0000 -0.0000 -1.0000
vt 0.250451 0.003089
vt 0.249750 0.215464
vt -0.000248 0.214640
vt 0.000452 0.002264
vt 0.256105 0.007538
vt 0.256105 0.219914
vt 0.256105 0.219089
vt 0.256105 0.006714
vt 0.735475 0.759858
vt 0.734733 0.984857
vt 0.509734 0.984115
vt 0.510476 0.759116
vt 0.176311 0.824614
vt 0.175734 0.999366
vt 0.000982 0.998790
vt 0.001558 0.824037
vt 0.500449 0.003913
vt 0.499749 0.216289
vt 0.038540 0.332144
vt 0.037964 0.506897
vt 0.000217 0.544396
vt 0.001041 0.257288
vt 0.962647 0.075722
vt 0.787894 0.075146
vt 0.750520 -0.000224
vt 1.000518 0.000600
vt 0.787553 0.697863
vt 0.962305 0.698440
vt 0.999804 0.736187
vt 0.749806 0.735362
vt 0.962532 0.506964
vt 0.963108 0.332211
vt 1.000855 0.257185
vt 1.000031 0.544711
vt 0.256105 0.218265
vt 0.256105 0.005889
s 0
usemtl Material
f 2/1/1 8/2/1 12/3/1 4/4/1
f 4/5/2 12/6/2 10/7/2 3/8/2
f 3/9/3 1/10/3 2/11/3 4/12/3
f 5/13/4 9/14/4 11/15/4 7/16/4
f 1/17/5 6/18/5 8/2/5 2/1/5
f 7/19/6 11/20/6 12/21/6 8/22/6
f 5/23/7 7/24/7 8/25/7 6/26/7
f 11/27/8 9/28/8 10/29/8 12/30/8
f 9/31/9 5/32/9 6/33/9 10/34/9
f 3/8/10 10/7/10 6/35/10 1/36/10
