# Blender 3.6.2
# www.blender.org
mtllib DeceBalus_Large_Hammer_Hammer.mtl
o Cube.001
v -0.096609 1.797140 -0.097091
v -0.096609 -0.250484 -0.097094
v -0.096609 1.797140 0.097094
v -0.096609 -0.250484 0.097091
v 0.096609 1.797140 -0.097091
v 0.096609 -0.250484 -0.097094
v 0.096609 1.797140 0.097094
v 0.096609 -0.250484 0.097091
vn -1.0000 -0.0000 -0.0000
vn -0.0000 -0.0000 1.0000
vn 1.0000 -0.0000 -0.0000
vn -0.0000 -0.0000 -1.0000
vn -0.0000 1.0000 -0.0000
vn -0.0000 -1.0000 -0.0000
vt 0.507497 0.746299
vt 0.735991 0.746299
vt 0.735991 0.996299
vt 0.507497 0.996299
vt 0.508731 0.746689
vt 0.733462 0.746689
vt 0.733462 0.996689
vt 0.508731 0.996689
vt 0.516886 0.744783
vt 0.724012 0.744783
vt 0.724012 0.994783
vt 0.516886 0.994783
vt 0.514946 0.750000
vt 0.724657 0.750000
vt 0.724657 1.000000
vt 0.514946 1.000000
vt 0.515027 0.746366
vt 0.721233 0.746366
vt 0.721233 0.996366
vt 0.515027 0.996366
vt 0.516348 0.747216
vt 0.725830 0.747216
vt 0.725830 0.997216
vt 0.516348 0.997216
s 0
usemtl Material
f 1/1/1 2/2/1 4/3/1 3/4/1
f 3/5/2 4/6/2 8/7/2 7/8/2
f 7/9/3 8/10/3 6/11/3 5/12/3
f 5/13/4 6/14/4 2/15/4 1/16/4
f 3/17/5 7/18/5 5/19/5 1/20/5
f 8/21/6 4/22/6 2/23/6 6/24/6
o Riser.Base.003
v -0.000000 2.384328 -0.300000
v -0.000000 2.384328 0.300000
v 0.000000 1.552519 -0.300000
v 0.000000 1.552519 0.300000
v -0.499175 2.259147 -0.209705
v -0.424053 2.384328 -0.300000
v -0.499175 2.259147 0.209705
v -0.424053 2.384328 0.300000
v -0.499175 1.677699 -0.209705
v -0.424053 1.552519 -0.300000
v -0.499175 1.677699 0.209705
v -0.424053 1.552519 0.300000
v 0.000000 1.552519 -0.300000
v 0.000000 1.552519 0.300000
v -0.000000 2.384328 -0.300000
v -0.000000 2.384328 0.300000
v 0.499175 1.677700 -0.209705
v 0.424053 1.552519 -0.300000
v 0.499175 1.677700 0.209705
v 0.424053 1.552519 0.300000
v 0.499175 2.259147 -0.209705
v 0.424053 2.384328 -0.300000
v 0.499175 2.259147 0.209705
v 0.424053 2.384328 0.300000
vn -0.0000 -0.0000 1.0000
vn -0.0000 -1.0000 -0.0000
vn 1.0000 -0.0000 -0.0000
vn -1.0000 -0.0000 -0.0000
vn -0.0000 1.0000 -0.0000
vn -0.7687 -0.0000 0.6396
vn -0.8575 0.5146 -0.0000
vn -0.8575 -0.5146 -0.0000
vn -0.7687 -0.0000 -0.6396
vn -0.0000 -0.0000 -1.0000
vn 0.7687 -0.0000 0.6396
vn 0.8575 -0.5146 -0.0000
vn 0.8575 0.5146 -0.0000
vn 0.7687 -0.0000 -0.6396
vt -0.000248 0.214640
vt 0.000452 0.002264
vt 0.250451 0.003089
vt 0.249750 0.215464
vt 0.256380 0.223709
vt 0.255829 0.002058
vt 0.255831 0.002918
vt 0.256382 0.224570
vt 0.735475 0.759858
vt 0.734733 0.984857
vt 0.509734 0.984115
vt 0.510476 0.759116
vt 0.176311 0.824614
vt 0.175734 0.999366
vt 0.000982 0.998790
vt 0.001558 0.824037
vt 0.249789 0.215510
vt 0.250412 0.003134
vt 0.500411 0.003868
vt 0.499788 0.216244
vt 0.038540 0.332144
vt 0.037964 0.506897
vt 0.000217 0.544396
vt 0.001041 0.257288
vt 0.962647 0.075722
vt 0.787894 0.075146
vt 0.750520 -0.000224
vt 1.000518 0.000600
vt 0.787553 0.697863
vt 0.962305 0.698440
vt 0.999804 0.736187
vt 0.749806 0.735362
vt 0.962532 0.506964
vt 0.963108 0.332211
vt 1.000855 0.257185
vt 1.000031 0.544711
vt 0.258757 0.218232
vt 0.253433 0.005923
vt 0.253454 0.006747
vt 0.258778 0.219056
vt -0.000248 0.214640
vt 0.256105 0.219089
vt 0.256105 0.006714
vt 0.256105 0.007538
vt 0.256105 0.219914
vt 0.249653 0.215349
vt 0.250549 0.002974
vt 0.500547 0.004028
vt 0.499651 0.216403
vt 0.256105 0.222563
vt 0.256105 0.001558
vt 0.256105 0.002416
vt 0.256105 0.223421
s 0
usemtl Material
f 10/25/7 16/26/7 20/27/7 12/28/7
f 12/29/8 20/30/8 18/31/8 11/32/8
f 11/33/9 9/34/9 10/35/9 12/36/9
f 13/37/10 17/38/10 19/39/10 15/40/10
f 9/41/11 14/42/11 16/43/11 10/44/11
f 15/45/12 19/46/12 20/47/12 16/48/12
f 13/49/13 15/50/13 16/51/13 14/52/13
f 19/53/14 17/54/14 18/55/14 20/56/14
f 17/57/15 13/58/15 14/59/15 18/60/15
f 11/61/16 18/62/16 14/63/16 9/64/16
f 22/65/7 28/26/7 32/27/7 24/28/7
f 24/66/11 32/67/11 30/68/11 23/69/11
f 23/33/10 21/34/10 22/35/10 24/36/10
f 25/37/9 29/38/9 31/39/9 27/40/9
f 21/70/8 26/71/8 28/72/8 22/73/8
f 27/45/17 31/46/17 32/47/17 28/48/17
f 25/49/18 27/50/18 28/51/18 26/52/18
f 31/53/19 29/54/19 30/55/19 32/56/19
f 29/57/20 25/58/20 26/59/20 30/60/20
f 23/74/16 30/75/16 26/76/16 21/77/16
