# Blender 3.6.2
# www.blender.org
mtllib DeceBalus_Tree_Part3.mtl
o Cube.005
v -0.300000 1.200000 0.300000
v -0.300000 1.600000 0.300000
v -0.300000 1.200000 -0.300000
v -0.300000 1.600000 -0.300000
v 0.300000 1.200000 0.300000
v 0.300000 1.600000 0.300000
v 0.300000 1.200000 -0.300000
v 0.300000 1.600000 -0.300000
vn -1.0000 -0.0000 -0.0000
vn -0.0000 -0.0000 -1.0000
vn 1.0000 -0.0000 -0.0000
vn -0.0000 -0.0000 1.0000
vn -0.0000 -1.0000 -0.0000
vn -0.0000 1.0000 -0.0000
vt 0.268042 0.532395
vt 0.475996 0.532395
vt 0.475996 0.585620
vt 0.268042 0.585620
vt 0.266368 0.537258
vt 0.478698 0.537258
vt 0.478698 0.583626
vt 0.266368 0.583626
vt 0.266848 0.532270
vt 0.478594 0.532270
vt 0.478594 0.585842
vt 0.266848 0.585842
vt 0.271015 0.534774
vt 0.473023 0.534774
vt 0.473023 0.586818
vt 0.271015 0.586818
vt 0.268198 0.535090
vt 0.476585 0.535090
vt 0.476585 0.588213
vt 0.268198 0.588213
vt 0.266515 0.534956
vt 0.475878 0.534956
vt 0.475878 0.585659
vt 0.266515 0.585659
s 0
usemtl Material
f 1/1/1 2/2/1 4/3/1 3/4/1
f 3/5/2 4/6/2 8/7/2 7/8/2
f 7/9/3 8/10/3 6/11/3 5/12/3
f 5/13/4 6/14/4 2/15/4 1/16/4
f 3/17/5 7/18/5 5/19/5 1/20/5
f 8/21/6 4/22/6 2/23/6 6/24/6
