# Blender 3.6.2
# www.blender.org
mtllib DeceBalus_Spotlight_Laser.mtl
o Cylinder.006
v 0.000000 0.350000 -0.100000
v 0.000000 0.850000 -0.100000
v 0.019509 0.350000 -0.098079
v 0.019509 0.850000 -0.098079
v 0.038268 0.350000 -0.092388
v 0.038268 0.850000 -0.092388
v 0.055557 0.350000 -0.083147
v 0.055557 0.850000 -0.083147
v 0.070711 0.350000 -0.070711
v 0.070711 0.850000 -0.070711
v 0.083147 0.350000 -0.055557
v 0.083147 0.850000 -0.055557
v 0.092388 0.350000 -0.038268
v 0.092388 0.850000 -0.038268
v 0.098079 0.350000 -0.019509
v 0.098079 0.850000 -0.019509
v 0.100000 0.350000 0.000000
v 0.100000 0.850000 0.000000
v 0.098079 0.350000 0.019509
v 0.098079 0.850000 0.019509
v 0.092388 0.350000 0.038268
v 0.092388 0.850000 0.038268
v 0.083147 0.350000 0.055557
v 0.083147 0.850000 0.055557
v 0.070711 0.350000 0.070711
v 0.070711 0.850000 0.070711
v 0.055557 0.350000 0.083147
v 0.055557 0.850000 0.083147
v 0.038268 0.350000 0.092388
v 0.038268 0.850000 0.092388
v 0.019509 0.350000 0.098079
v 0.019509 0.850000 0.098079
v 0.000000 0.350000 0.100000
v 0.000000 0.850000 0.100000
v -0.019509 0.350000 0.098079
v -0.019509 0.850000 0.098079
v -0.038268 0.350000 0.092388
v -0.038268 0.850000 0.092388
v -0.055557 0.350000 0.083147
v -0.055557 0.850000 0.083147
v -0.070711 0.350000 0.070711
v -0.070711 0.850000 0.070711
v -0.083147 0.350000 0.055557
v -0.083147 0.850000 0.055557
v -0.092388 0.350000 0.038268
v -0.092388 0.850000 0.038268
v -0.098079 0.350000 0.019509
v -0.098079 0.850000 0.019509
v -0.100000 0.350000 0.000000
v -0.100000 0.850000 0.000000
v -0.098079 0.350000 -0.019509
v -0.098079 0.850000 -0.019509
v -0.092388 0.350000 -0.038268
v -0.092388 0.850000 -0.038268
v -0.083147 0.350000 -0.055557
v -0.083147 0.850000 -0.055557
v -0.070711 0.350000 -0.070711
v -0.070711 0.850000 -0.070711
v -0.055557 0.350000 -0.083147
v -0.055557 0.850000 -0.083147
v -0.038268 0.350000 -0.092388
v -0.038268 0.850000 -0.092388
v -0.019509 0.350000 -0.098079
v -0.019509 0.850000 -0.098079
vn 0.0980 -0.0000 -0.9952
vn 0.2903 -0.0000 -0.9569
vn 0.4714 -0.0000 -0.8819
vn 0.6344 -0.0000 -0.7730
vn 0.7730 -0.0000 -0.6344
vn 0.8819 -0.0000 -0.4714
vn 0.9569 -0.0000 -0.2903
vn 0.9952 -0.0000 -0.0980
vn 0.9952 -0.0000 0.0980
vn 0.9569 -0.0000 0.2903
vn 0.8819 -0.0000 0.4714
vn 0.7730 -0.0000 0.6344
vn 0.6344 -0.0000 0.7730
vn 0.4714 -0.0000 0.8819
vn 0.2903 -0.0000 0.9569
vn 0.0980 -0.0000 0.9952
vn -0.0980 -0.0000 0.9952
vn -0.2903 -0.0000 0.9569
vn -0.4714 -0.0000 0.8819
vn -0.6344 -0.0000 0.7730
vn -0.7730 -0.0000 0.6344
vn -0.8819 -0.0000 0.4714
vn -0.9569 -0.0000 0.2903
vn -0.9952 -0.0000 0.0980
vn -0.9952 -0.0000 -0.0980
vn -0.9569 -0.0000 -0.2903
vn -0.8819 -0.0000 -0.4714
vn -0.7730 -0.0000 -0.6344
vn -0.6344 -0.0000 -0.7730
vn -0.4714 -0.0000 -0.8819
vn -0.0000 1.0000 -0.0000
vn -0.2903 -0.0000 -0.9569
vn -0.0980 -0.0000 -0.9952
vn -0.0000 -1.0000 -0.0000
vt 0.210562 0.038132
vt 0.210562 0.237914
vt 0.204303 0.237914
vt 0.204303 0.038132
vt 0.198045 0.237914
vt 0.198045 0.038132
vt 0.191786 0.237914
vt 0.191786 0.038132
vt 0.185527 0.237914
vt 0.185527 0.038132
vt 0.179269 0.237914
vt 0.179269 0.038132
vt 0.173010 0.237914
vt 0.173010 0.038132
vt 0.166751 0.237914
vt 0.166751 0.038132
vt 0.160493 0.237914
vt 0.160493 0.038132
vt 0.154234 0.237914
vt 0.154234 0.038132
vt 0.147975 0.237914
vt 0.147975 0.038132
vt 0.141717 0.237914
vt 0.141717 0.038132
vt 0.135458 0.237914
vt 0.135458 0.038132
vt 0.129200 0.237914
vt 0.129200 0.038132
vt 0.122941 0.237914
vt 0.122941 0.038132
vt 0.116682 0.237914
vt 0.116682 0.038132
vt 0.110424 0.237914
vt 0.110424 0.038132
vt 0.104165 0.237914
vt 0.104165 0.038132
vt 0.097906 0.237914
vt 0.097906 0.038132
vt 0.091648 0.237914
vt 0.091648 0.038132
vt 0.085389 0.237914
vt 0.085389 0.038132
vt 0.079130 0.237914
vt 0.079130 0.038132
vt 0.072872 0.237914
vt 0.072872 0.038132
vt 0.066613 0.237914
vt 0.066613 0.038132
vt 0.060354 0.237914
vt 0.060354 0.038132
vt 0.054096 0.237914
vt 0.054096 0.038132
vt 0.047837 0.237914
vt 0.047837 0.038132
vt 0.041578 0.237914
vt 0.041578 0.038132
vt 0.035320 0.237914
vt 0.035320 0.038132
vt 0.029061 0.237914
vt 0.029061 0.038132
vt 0.022802 0.237914
vt 0.022802 0.038132
vt 0.383952 0.376514
vt 0.372384 0.377629
vt 0.360815 0.376514
vt 0.349691 0.373213
vt 0.339440 0.367853
vt 0.330454 0.360638
vt 0.323079 0.351848
vt 0.317599 0.341819
vt 0.314225 0.330937
vt 0.313086 0.319621
vt 0.314225 0.308304
vt 0.317599 0.297422
vt 0.323079 0.287393
vt 0.330454 0.278603
vt 0.339440 0.271389
vt 0.349691 0.266028
vt 0.360815 0.262727
vt 0.372384 0.261613
vt 0.383952 0.262727
vt 0.395076 0.266028
vt 0.405328 0.271389
vt 0.414314 0.278603
vt 0.421689 0.287393
vt 0.427168 0.297422
vt 0.430543 0.308304
vt 0.431682 0.319621
vt 0.430543 0.330937
vt 0.427168 0.341819
vt 0.421689 0.351848
vt 0.414314 0.360638
vt 0.405328 0.367853
vt 0.395076 0.373213
vt 0.016544 0.237914
vt 0.016544 0.038132
vt 0.010285 0.237914
vt 0.010285 0.038132
vt 0.371999 0.378413
vt 0.383615 0.377277
vt 0.394784 0.373911
vt 0.405079 0.368445
vt 0.414102 0.361089
vt 0.421506 0.352126
vt 0.427009 0.341900
vt 0.430397 0.330804
vt 0.431541 0.319265
vt 0.430397 0.307726
vt 0.427009 0.296630
vt 0.421506 0.286404
vt 0.414102 0.277441
vt 0.405079 0.270086
vt 0.394784 0.264620
vt 0.383615 0.261254
vt 0.371999 0.260117
vt 0.360382 0.261254
vt 0.349213 0.264620
vt 0.338918 0.270086
vt 0.329895 0.277441
vt 0.322491 0.286404
vt 0.316988 0.296630
vt 0.313600 0.307726
vt 0.312456 0.319265
vt 0.313600 0.330804
vt 0.316988 0.341900
vt 0.322491 0.352126
vt 0.329895 0.361089
vt 0.338918 0.368445
vt 0.349213 0.373911
vt 0.360382 0.377277
s 0
usemtl Material
f 1/1/1 2/2/1 4/3/1 3/4/1
f 3/4/2 4/3/2 6/5/2 5/6/2
f 5/6/3 6/5/3 8/7/3 7/8/3
f 7/8/4 8/7/4 10/9/4 9/10/4
f 9/10/5 10/9/5 12/11/5 11/12/5
f 11/12/6 12/11/6 14/13/6 13/14/6
f 13/14/7 14/13/7 16/15/7 15/16/7
f 15/16/8 16/15/8 18/17/8 17/18/8
f 17/18/9 18/17/9 20/19/9 19/20/9
f 19/20/10 20/19/10 22/21/10 21/22/10
f 21/22/11 22/21/11 24/23/11 23/24/11
f 23/24/12 24/23/12 26/25/12 25/26/12
f 25/26/13 26/25/13 28/27/13 27/28/13
f 27/28/14 28/27/14 30/29/14 29/30/14
f 29/30/15 30/29/15 32/31/15 31/32/15
f 31/32/16 32/31/16 34/33/16 33/34/16
f 33/34/17 34/33/17 36/35/17 35/36/17
f 35/36/18 36/35/18 38/37/18 37/38/18
f 37/38/19 38/37/19 40/39/19 39/40/19
f 39/40/20 40/39/20 42/41/20 41/42/20
f 41/42/21 42/41/21 44/43/21 43/44/21
f 43/44/22 44/43/22 46/45/22 45/46/22
f 45/46/23 46/45/23 48/47/23 47/48/23
f 47/48/24 48/47/24 50/49/24 49/50/24
f 49/50/25 50/49/25 52/51/25 51/52/25
f 51/52/26 52/51/26 54/53/26 53/54/26
f 53/54/27 54/53/27 56/55/27 55/56/27
f 55/56/28 56/55/28 58/57/28 57/58/28
f 57/58/29 58/57/29 60/59/29 59/60/29
f 59/60/30 60/59/30 62/61/30 61/62/30
f 4/63/31 2/64/31 64/65/31 62/66/31 60/67/31 58/68/31 56/69/31 54/70/31 52/71/31 50/72/31 48/73/31 46/74/31 44/75/31 42/76/31 40/77/31 38/78/31 36/79/31 34/80/31 32/81/31 30/82/31 28/83/31 26/84/31 24/85/31 22/86/31 20/87/31 18/88/31 16/89/31 14/90/31 12/91/31 10/92/31 8/93/31 6/94/31
f 61/62/32 62/61/32 64/95/32 63/96/32
f 63/96/33 64/95/33 2/97/33 1/98/33
f 1/99/34 3/100/34 5/101/34 7/102/34 9/103/34 11/104/34 13/105/34 15/106/34 17/107/34 19/108/34 21/109/34 23/110/34 25/111/34 27/112/34 29/113/34 31/114/34 33/115/34 35/116/34 37/117/34 39/118/34 41/119/34 43/120/34 45/121/34 47/122/34 49/123/34 51/124/34 53/125/34 55/126/34 57/127/34 59/128/34 61/129/34 63/130/34
o Plane.001
v -0.100000 0.050001 -0.000000
v 0.100000 0.050001 -0.000000
v -0.100000 5.949999 0.000000
v 0.100000 5.949999 0.000000
vn -0.0000 -0.0000 -1.0000
vt 0.077978 0.555602
vt 0.077978 0.674776
vt 0.106234 0.674776
vt 0.106234 0.555602
s 0
usemtl Material
f 65/131/35 67/132/35 68/133/35 66/134/35
