# Blender 3.6.2
# www.blender.org
mtllib DeceBalus_Floater_Part1.mtl
o Solid
v 0.000000 0.770000 0.100000
v -0.408248 0.103333 0.335702
v -0.000000 0.103333 -0.371405
v 0.408248 0.103333 0.335702
vn -0.8165 0.3333 -0.4714
vn 0.8165 0.3333 -0.4714
vn -0.0000 0.3333 0.9428
vn -0.0000 -1.0000 -0.0000
vt 0.618704 -0.000002
vt 0.516848 -0.000002
vt 0.567776 0.150543
vt 0.616711 0.000080
vt 0.518728 0.000080
vt 0.567719 0.151197
vt 0.616626 -0.000093
vt 0.518461 -0.000093
vt 0.567544 0.150612
vt 0.615236 0.004029
vt 0.521313 0.004029
vt 0.568274 0.145066
s 0
usemtl Material
f 1/1/1 3/2/1 2/3/1
f 1/4/2 4/5/2 3/6/2
f 1/7/3 2/8/3 4/9/3
f 2/10/4 3/11/4 4/12/4
