# Blender 3.6.2
# www.blender.org
mtllib DeceBalus_Small_Hammer_Hammer.mtl
o Riser.Base.002
v 1.250000 0.750000 -0.002000
v 1.250000 0.250000 -0.002000
v 0.750000 0.750000 -0.002000
v 0.750000 0.250000 -0.002000
v 1.174754 0.674754 0.498000
v 1.250000 0.750000 0.422754
v 1.174754 0.325246 0.498000
v 1.250000 0.250000 0.422754
v 0.825246 0.674754 0.498000
v 0.750000 0.750000 0.422754
v 0.825246 0.325246 0.498000
v 0.750000 0.250000 0.422754
v 0.750000 0.750000 0.002000
v 0.750000 0.250000 0.002000
v 1.250000 0.750000 0.002000
v 1.250000 0.250000 0.002000
v 0.825246 0.674754 -0.498000
v 0.750000 0.750000 -0.422754
v 0.825246 0.325246 -0.498000
v 0.750000 0.250000 -0.422754
v 1.174754 0.674754 -0.498000
v 1.250000 0.750000 -0.422754
v 1.174754 0.325246 -0.498000
v 1.250000 0.250000 -0.422754
vn -0.0000 -1.0000 -0.0000
vn -1.0000 -0.0000 -0.0000
vn -0.0000 -0.0000 -1.0000
vn -0.0000 -0.0000 1.0000
vn 1.0000 -0.0000 -0.0000
vn -0.0000 -0.7071 0.7071
vn 0.7071 -0.0000 0.7071
vn -0.7071 -0.0000 0.7071
vn -0.0000 0.7071 0.7071
vn -0.0000 1.0000 -0.0000
vn -0.0000 -0.7071 -0.7071
vn -0.7071 -0.0000 -0.7071
vn 0.7071 -0.0000 -0.7071
vn -0.0000 0.7071 -0.7071
vt 0.250451 0.052159
vt 0.249750 0.166011
vt -0.000248 0.165569
vt 0.000452 0.051717
vt 0.256105 0.035584
vt 0.256105 0.191649
vt 0.256105 0.191043
vt 0.256105 0.034978
vt 0.739279 0.747400
vt 0.738454 0.997398
vt 0.488456 0.996574
vt 0.489280 0.746575
vt 0.176311 0.824614
vt 0.175734 0.999366
vt 0.000982 0.998790
vt 0.001558 0.824037
vt 0.500449 0.041491
vt 0.499749 0.178418
vt 0.249750 0.177886
vt 0.250451 0.040959
vt 0.038540 0.332144
vt 0.037964 0.506897
vt 0.000217 0.544396
vt 0.001041 0.257288
vt 0.962647 0.075722
vt 0.787894 0.075146
vt 0.750520 -0.000224
vt 1.000518 0.000600
vt 0.787553 0.697863
vt 0.962305 0.698440
vt 0.999804 0.736187
vt 0.749806 0.735362
vt 0.962532 0.506964
vt 0.963108 0.332211
vt 1.000855 0.257185
vt 1.000031 0.544711
vt 0.256105 0.056261
vt 0.256105 0.169156
vt 0.256105 0.168718
vt 0.256105 0.055822
vt 0.250451 0.039954
vt 0.249750 0.178312
vt -0.000248 0.177774
vt 0.000452 0.039417
vt 0.256105 0.037807
vt 0.256105 0.189409
vt 0.256105 0.188820
vt 0.256105 0.037218
vt 0.500449 0.043059
vt 0.499749 0.176838
vt 0.249750 0.176319
vt 0.250451 0.042539
vt 0.256105 0.042163
vt 0.256105 0.183363
vt 0.256105 0.182815
vt 0.256105 0.041615
s 0
usemtl Material
f 2/1/1 8/2/1 12/3/1 4/4/1
f 4/5/2 12/6/2 10/7/2 3/8/2
f 3/9/3 1/10/3 2/11/3 4/12/3
f 5/13/4 9/14/4 11/15/4 7/16/4
f 1/17/5 6/18/5 8/19/5 2/20/5
f 7/21/6 11/22/6 12/23/6 8/24/6
f 5/25/7 7/26/7 8/27/7 6/28/7
f 11/29/8 9/30/8 10/31/8 12/32/8
f 9/33/9 5/34/9 6/35/9 10/36/9
f 3/37/10 10/38/10 6/39/10 1/40/10
f 14/41/1 20/42/1 24/43/1 16/44/1
f 16/45/5 24/46/5 22/47/5 15/48/5
f 15/9/4 13/10/4 14/11/4 16/12/4
f 17/13/3 21/14/3 23/15/3 19/16/3
f 13/49/2 18/50/2 20/51/2 14/52/2
f 19/21/11 23/22/11 24/23/11 20/24/11
f 17/25/12 19/26/12 20/27/12 18/28/12
f 23/29/13 21/30/13 22/31/13 24/32/13
f 21/33/14 17/34/14 18/35/14 22/36/14
f 15/53/10 22/54/10 18/55/10 13/56/10
o Cube
v 1.135145 0.597093 -0.097093
v -0.335145 0.597092 -0.097092
v 1.135145 0.597093 0.097092
v -0.335145 0.597092 0.097093
v 1.135145 0.402908 -0.097093
v -0.335145 0.402907 -0.097092
v 1.135145 0.402908 0.097092
v -0.335145 0.402907 0.097093
vn -0.0000 1.0000 -0.0000
vn -0.0000 -0.0000 1.0000
vn -0.0000 -1.0000 -0.0000
vn -0.0000 -0.0000 -1.0000
vn 1.0000 -0.0000 -0.0000
vn -1.0000 -0.0000 -0.0000
vt 0.507497 0.746299
vt 0.735991 0.746299
vt 0.735991 0.996299
vt 0.507497 0.996299
vt 0.508731 0.746689
vt 0.733462 0.746689
vt 0.733462 0.996689
vt 0.508731 0.996689
vt 0.516886 0.744783
vt 0.724012 0.744783
vt 0.724012 0.994783
vt 0.516886 0.994783
vt 0.514946 0.750000
vt 0.724657 0.750000
vt 0.724657 1.000000
vt 0.514946 1.000000
vt 0.515027 0.746366
vt 0.721233 0.746366
vt 0.721233 0.996366
vt 0.515027 0.996366
vt 0.516348 0.747216
vt 0.725830 0.747216
vt 0.725830 0.997216
vt 0.516348 0.997216
s 0
usemtl Material
f 25/57/15 26/58/15 28/59/15 27/60/15
f 27/61/16 28/62/16 32/63/16 31/64/16
f 31/65/17 32/66/17 30/67/17 29/68/17
f 29/69/18 30/70/18 26/71/18 25/72/18
f 27/73/19 31/74/19 29/75/19 25/76/19
f 32/77/20 28/78/20 26/79/20 30/80/20
