# Blender 3.6.2
# www.blender.org
mtllib DeceBalus_Floater_Part2.mtl
o Solid.001
v 0.000000 0.770000 0.100000
v -0.408248 0.103333 0.335702
v -0.000000 0.103333 -0.371405
v 0.408248 0.103333 0.335702
vn -0.8165 0.3333 -0.4714
vn 0.8165 0.3333 -0.4714
vn -0.0000 0.3333 0.9428
vn -0.0000 -1.0000 -0.0000
vt 0.721094 -0.000002
vt 0.625189 -0.000002
vt 0.673142 0.150543
vt 0.723494 0.000080
vt 0.625511 0.000080
vt 0.674502 0.151197
vt 0.721735 -0.000093
vt 0.623570 -0.000093
vt 0.672652 0.150612
vt 0.720742 0.004029
vt 0.626819 0.004029
vt 0.673781 0.145066
s 0
usemtl Material
f 1/1/1 3/2/1 2/3/1
f 1/4/2 4/5/2 3/6/2
f 1/7/3 2/8/3 4/9/3
f 2/10/4 3/11/4 4/12/4
