# Blender 3.6.2
# www.blender.org
mtllib DeceBalus_Rotor_Object_Glass_Active.mtl
o Cylinder.005
v 0.000000 0.500000 -0.250000
v 0.000000 0.500000 0.250000
v 0.097545 0.490393 -0.250000
v 0.097545 0.490393 0.250000
v 0.191342 0.461940 -0.250000
v 0.191342 0.461940 0.250000
v 0.277785 0.415735 -0.250000
v 0.277785 0.415735 0.250000
v 0.353553 0.353553 -0.250000
v 0.353553 0.353553 0.250000
v 0.415735 0.277785 -0.250000
v 0.415735 0.277785 0.250000
v 0.461940 0.191342 -0.250000
v 0.461940 0.191342 0.250000
v 0.490393 0.097545 -0.250000
v 0.490393 0.097545 0.250000
v 0.500000 0.000000 -0.250000
v 0.500000 -0.000000 0.250000
v 0.490393 -0.097545 -0.250000
v 0.490393 -0.097545 0.250000
v 0.461940 -0.191342 -0.250000
v 0.461940 -0.191342 0.250000
v 0.415735 -0.277785 -0.250000
v 0.415735 -0.277785 0.250000
v 0.353553 -0.353553 -0.250000
v 0.353553 -0.353553 0.250000
v 0.277785 -0.415735 -0.250000
v 0.277785 -0.415735 0.250000
v 0.191342 -0.461940 -0.250000
v 0.191342 -0.461940 0.250000
v 0.097545 -0.490393 -0.250000
v 0.097545 -0.490393 0.250000
v 0.000000 -0.500000 -0.250000
v 0.000000 -0.500000 0.250000
v -0.097545 -0.490393 -0.250000
v -0.097545 -0.490393 0.250000
v -0.191342 -0.461940 -0.250000
v -0.191342 -0.461940 0.250000
v -0.277785 -0.415735 -0.250000
v -0.277785 -0.415735 0.250000
v -0.353553 -0.353553 -0.250000
v -0.353553 -0.353553 0.250000
v -0.415735 -0.277785 -0.250000
v -0.415735 -0.277785 0.250000
v -0.461940 -0.191342 -0.250000
v -0.461940 -0.191342 0.250000
v -0.490393 -0.097545 -0.250000
v -0.490393 -0.097545 0.250000
v -0.500000 0.000000 -0.250000
v -0.500000 -0.000000 0.250000
v -0.490393 0.097545 -0.250000
v -0.490393 0.097545 0.250000
v -0.461940 0.191342 -0.250000
v -0.461940 0.191342 0.250000
v -0.415735 0.277785 -0.250000
v -0.415735 0.277785 0.250000
v -0.353553 0.353553 -0.250000
v -0.353553 0.353553 0.250000
v -0.277785 0.415735 -0.250000
v -0.277785 0.415735 0.250000
v -0.191342 0.461940 -0.250000
v -0.191342 0.461940 0.250000
v -0.097545 0.490393 -0.250000
v -0.097545 0.490393 0.250000
vn 0.0980 0.9952 -0.0000
vn 0.2903 0.9569 -0.0000
vn 0.4714 0.8819 -0.0000
vn 0.6344 0.7730 -0.0000
vn 0.7730 0.6344 -0.0000
vn 0.8819 0.4714 -0.0000
vn 0.9569 0.2903 -0.0000
vn 0.9952 0.0980 -0.0000
vn 0.9952 -0.0980 -0.0000
vn 0.9569 -0.2903 -0.0000
vn 0.8819 -0.4714 -0.0000
vn 0.7730 -0.6344 -0.0000
vn 0.6344 -0.7730 -0.0000
vn 0.4714 -0.8819 -0.0000
vn 0.2903 -0.9569 -0.0000
vn 0.0980 -0.9952 -0.0000
vn -0.0980 -0.9952 -0.0000
vn -0.2903 -0.9569 -0.0000
vn -0.4714 -0.8819 -0.0000
vn -0.6344 -0.7730 -0.0000
vn -0.7730 -0.6344 -0.0000
vn -0.8819 -0.4714 -0.0000
vn -0.9569 -0.2903 -0.0000
vn -0.9952 -0.0980 -0.0000
vn -0.9952 0.0980 -0.0000
vn -0.9569 0.2903 -0.0000
vn -0.8819 0.4714 -0.0000
vn -0.7730 0.6344 -0.0000
vn -0.6344 0.7730 -0.0000
vn -0.4714 0.8819 -0.0000
vn -0.0000 -0.0000 1.0000
vn -0.2903 0.9569 -0.0000
vn -0.0980 0.9952 -0.0000
vn -0.0000 -0.0000 -1.0000
vt 0.529503 0.885183
vt 0.529503 0.987475
vt 0.532690 0.987475
vt 0.532690 0.885183
vt 0.535876 0.987475
vt 0.535876 0.885183
vt 0.539062 0.987475
vt 0.539062 0.885183
vt 0.542249 0.987475
vt 0.542249 0.885183
vt 0.545435 0.987475
vt 0.545435 0.885183
vt 0.548621 0.987475
vt 0.548621 0.885183
vt 0.551808 0.987475
vt 0.551808 0.885183
vt 0.554994 0.987475
vt 0.554994 0.885183
vt 0.558180 0.987475
vt 0.558180 0.885183
vt 0.561367 0.987475
vt 0.561367 0.885183
vt 0.564553 0.987475
vt 0.564553 0.885183
vt 0.567740 0.987475
vt 0.567740 0.885183
vt 0.570926 0.987475
vt 0.570926 0.885183
vt 0.574112 0.987475
vt 0.574112 0.885183
vt 0.577299 0.987475
vt 0.577299 0.885183
vt 0.580485 0.987475
vt 0.580485 0.885183
vt 0.583671 0.987475
vt 0.583671 0.885183
vt 0.586858 0.987475
vt 0.586858 0.885183
vt 0.590044 0.987475
vt 0.590044 0.885183
vt 0.593230 0.987475
vt 0.593230 0.885183
vt 0.596417 0.987475
vt 0.596417 0.885183
vt 0.599603 0.987475
vt 0.599603 0.885183
vt 0.602790 0.987475
vt 0.602790 0.885183
vt 0.605976 0.987475
vt 0.605976 0.885183
vt 0.609162 0.987475
vt 0.609162 0.885183
vt 0.612349 0.987475
vt 0.612349 0.885183
vt 0.615535 0.987475
vt 0.615535 0.885183
vt 0.618721 0.987475
vt 0.618721 0.885183
vt 0.621908 0.987475
vt 0.621908 0.885183
vt 0.625094 0.987475
vt 0.625094 0.885183
vt 0.590989 0.985843
vt 0.581241 0.986837
vt 0.571493 0.985843
vt 0.562119 0.982899
vt 0.553481 0.978117
vt 0.545909 0.971682
vt 0.539695 0.963842
vt 0.535077 0.954896
vt 0.532234 0.945190
vt 0.531274 0.935095
vt 0.532234 0.925001
vt 0.535077 0.915295
vt 0.539695 0.906349
vt 0.545909 0.898508
vt 0.553481 0.892073
vt 0.562119 0.887292
vt 0.571493 0.884348
vt 0.581241 0.883353
vt 0.590989 0.884348
vt 0.600362 0.887292
vt 0.609001 0.892073
vt 0.616573 0.898508
vt 0.622787 0.906349
vt 0.627404 0.915295
vt 0.630248 0.925001
vt 0.631208 0.935095
vt 0.630248 0.945190
vt 0.627404 0.954896
vt 0.622787 0.963842
vt 0.616573 0.971682
vt 0.609001 0.978117
vt 0.600362 0.982899
vt 0.628280 0.987475
vt 0.628280 0.885183
vt 0.631467 0.987475
vt 0.631467 0.885183
vt 0.582011 0.983414
vt 0.591380 0.982502
vt 0.600389 0.979800
vt 0.608692 0.975412
vt 0.615970 0.969508
vt 0.621942 0.962313
vt 0.626380 0.954105
vt 0.629113 0.945198
vt 0.630036 0.935936
vt 0.629113 0.926673
vt 0.626380 0.917766
vt 0.621942 0.909558
vt 0.615970 0.902363
vt 0.608692 0.896459
vt 0.600389 0.892071
vt 0.591380 0.889370
vt 0.582011 0.888457
vt 0.572642 0.889370
vt 0.563633 0.892071
vt 0.555330 0.896459
vt 0.548052 0.902363
vt 0.542080 0.909558
vt 0.537642 0.917766
vt 0.534909 0.926673
vt 0.533986 0.935936
vt 0.534909 0.945198
vt 0.537642 0.954105
vt 0.542080 0.962313
vt 0.548052 0.969508
vt 0.555330 0.975412
vt 0.563633 0.979800
vt 0.572642 0.982502
s 0
usemtl Material.001
f 1/1/1 2/2/1 4/3/1 3/4/1
f 3/4/2 4/3/2 6/5/2 5/6/2
f 5/6/3 6/5/3 8/7/3 7/8/3
f 7/8/4 8/7/4 10/9/4 9/10/4
f 9/10/5 10/9/5 12/11/5 11/12/5
f 11/12/6 12/11/6 14/13/6 13/14/6
f 13/14/7 14/13/7 16/15/7 15/16/7
f 15/16/8 16/15/8 18/17/8 17/18/8
f 17/18/9 18/17/9 20/19/9 19/20/9
f 19/20/10 20/19/10 22/21/10 21/22/10
f 21/22/11 22/21/11 24/23/11 23/24/11
f 23/24/12 24/23/12 26/25/12 25/26/12
f 25/26/13 26/25/13 28/27/13 27/28/13
f 27/28/14 28/27/14 30/29/14 29/30/14
f 29/30/15 30/29/15 32/31/15 31/32/15
f 31/32/16 32/31/16 34/33/16 33/34/16
f 33/34/17 34/33/17 36/35/17 35/36/17
f 35/36/18 36/35/18 38/37/18 37/38/18
f 37/38/19 38/37/19 40/39/19 39/40/19
f 39/40/20 40/39/20 42/41/20 41/42/20
f 41/42/21 42/41/21 44/43/21 43/44/21
f 43/44/22 44/43/22 46/45/22 45/46/22
f 45/46/23 46/45/23 48/47/23 47/48/23
f 47/48/24 48/47/24 50/49/24 49/50/24
f 49/50/25 50/49/25 52/51/25 51/52/25
f 51/52/26 52/51/26 54/53/26 53/54/26
f 53/54/27 54/53/27 56/55/27 55/56/27
f 55/56/28 56/55/28 58/57/28 57/58/28
f 57/58/29 58/57/29 60/59/29 59/60/29
f 59/60/30 60/59/30 62/61/30 61/62/30
f 4/63/31 2/64/31 64/65/31 62/66/31 60/67/31 58/68/31 56/69/31 54/70/31 52/71/31 50/72/31 48/73/31 46/74/31 44/75/31 42/76/31 40/77/31 38/78/31 36/79/31 34/80/31 32/81/31 30/82/31 28/83/31 26/84/31 24/85/31 22/86/31 20/87/31 18/88/31 16/89/31 14/90/31 12/91/31 10/92/31 8/93/31 6/94/31
f 61/62/32 62/61/32 64/95/32 63/96/32
f 63/96/33 64/95/33 2/97/33 1/98/33
f 1/99/34 3/100/34 5/101/34 7/102/34 9/103/34 11/104/34 13/105/34 15/106/34 17/107/34 19/108/34 21/109/34 23/110/34 25/111/34 27/112/34 29/113/34 31/114/34 33/115/34 35/116/34 37/117/34 39/118/34 41/119/34 43/120/34 45/121/34 47/122/34 49/123/34 51/124/34 53/125/34 55/126/34 57/127/34 59/128/34 61/129/34 63/130/34
