# Blender 3.6.2
# www.blender.org
mtllib DeceBalus_Crusher_Base.mtl
o Crusher.Base
v -0.498001 -0.498001 0.498001
v -0.186579 0.354302 0.186702
v -0.498001 -0.498001 -0.498001
v -0.186579 0.354302 -0.186702
v 0.498001 -0.498001 0.498001
v 0.186579 0.354302 0.186702
v 0.498001 -0.498001 -0.498001
v 0.186579 0.354302 -0.186702
v -0.062818 0.272031 0.060111
v -0.062818 0.534336 0.060111
v -0.062818 0.272031 -0.074447
v -0.062818 0.534336 -0.074447
v 0.071741 0.272031 0.060111
v 0.071741 0.534336 0.060111
v 0.071741 0.272031 -0.074447
v 0.071741 0.534336 -0.074447
vn -0.9393 0.3432 -0.0000
vn -0.0000 0.3431 -0.9393
vn 0.9393 0.3432 -0.0000
vn -0.0000 0.3431 0.9393
vn -0.0000 -1.0000 -0.0000
vn -0.0000 1.0000 -0.0000
vn -1.0000 -0.0000 -0.0000
vn -0.0000 -0.0000 -1.0000
vn 1.0000 -0.0000 -0.0000
vn -0.0000 -0.0000 1.0000
vt 0.503874 0.000943
vt 0.501994 0.250936
vt 0.252001 0.249057
vt 0.253881 -0.000936
vt 0.251790 0.002356
vt 0.251790 0.252356
vt 0.001790 0.252356
vt 0.001790 0.002356
vt 0.503713 0.001962
vt 0.503713 0.251962
vt 0.253713 0.251962
vt 0.253713 0.001962
vt 0.252294 0.001848
vt 0.252294 0.251848
vt 0.002294 0.251848
vt 0.002294 0.001848
vt 0.489884 0.748489
vt 0.739884 0.748489
vt 0.739884 0.998489
vt 0.489884 0.998489
vt 0.489358 0.748806
vt 0.739358 0.748806
vt 0.739358 0.998806
vt 0.489358 0.998806
vt 0.489322 0.747931
vt 0.739322 0.747931
vt 0.739322 0.997931
vt 0.489322 0.997931
vt 0.489974 0.748166
vt 0.739974 0.748166
vt 0.739974 0.998166
vt 0.489974 0.998166
vt 0.488196 0.747289
vt 0.738196 0.747289
vt 0.738196 0.997289
vt 0.488196 0.997289
vt 0.490657 0.750000
vt 0.740657 0.750000
vt 0.740657 1.000000
vt 0.490657 1.000000
vt 0.489296 0.747309
vt 0.739296 0.747309
vt 0.739296 0.997309
vt 0.489296 0.997309
vt 0.489358 0.747256
vt 0.739358 0.747256
vt 0.739358 0.997256
vt 0.489358 0.997256
s 0
usemtl Material
f 1/1/1 2/2/1 4/3/1 3/4/1
f 3/5/2 4/6/2 8/7/2 7/8/2
f 7/9/3 8/10/3 6/11/3 5/12/3
f 5/13/4 6/14/4 2/15/4 1/16/4
f 3/17/5 7/18/5 5/19/5 1/20/5
f 8/21/6 4/22/6 2/23/6 6/24/6
f 9/25/7 10/26/7 12/27/7 11/28/7
f 11/29/8 12/30/8 16/31/8 15/32/8
f 15/33/9 16/34/9 14/35/9 13/36/9
f 13/37/10 14/38/10 10/39/10 9/40/10
f 11/41/5 15/42/5 13/43/5 9/44/5
f 16/45/6 12/46/6 10/47/6 14/48/6
