# Blender 3.6.2
# www.blender.org
mtllib DeceBalus_Tree_Part6.mtl
o Cube.008
v -0.150000 2.400000 0.150000
v -0.150000 2.800000 0.150000
v -0.150000 2.400000 -0.150000
v -0.150000 2.800000 -0.150000
v 0.150000 2.400000 0.150000
v 0.150000 2.800000 0.150000
v 0.150000 2.400000 -0.150000
v 0.150000 2.800000 -0.150000
vn -1.0000 -0.0000 -0.0000
vn -0.0000 -0.0000 -1.0000
vn 1.0000 -0.0000 -0.0000
vn -0.0000 -0.0000 1.0000
vn -0.0000 -1.0000 -0.0000
vn -0.0000 1.0000 -0.0000
vt 0.311625 0.418189
vt 0.432413 0.418189
vt 0.432413 0.434968
vt 0.311625 0.434968
vt 0.314205 0.418557
vt 0.430861 0.418557
vt 0.430861 0.435135
vt 0.314205 0.435135
vt 0.310312 0.417044
vt 0.435129 0.417044
vt 0.435129 0.435520
vt 0.310312 0.435520
vt 0.315154 0.418417
vt 0.428884 0.418417
vt 0.428884 0.434352
vt 0.315154 0.434352
vt 0.312087 0.418964
vt 0.432696 0.418964
vt 0.432696 0.434948
vt 0.312087 0.434948
vt 0.311455 0.418307
vt 0.430938 0.418307
vt 0.430938 0.434543
vt 0.311455 0.434543
s 0
usemtl Material
f 1/1/1 2/2/1 4/3/1 3/4/1
f 3/5/2 4/6/2 8/7/2 7/8/2
f 7/9/3 8/10/3 6/11/3 5/12/3
f 5/13/4 6/14/4 2/15/4 1/16/4
f 3/17/5 7/18/5 5/19/5 1/20/5
f 8/21/6 4/22/6 2/23/6 6/24/6
