# Blender 3.4.1
# www.blender.org
mtllib DeceBalus Riser.mtl
o Cube
v -1.000000 -0.419047 1.000000
v -0.706272 1.832144 0.706272
v -1.000000 -0.419047 -1.000000
v -0.706272 1.832144 -0.706272
v 1.000000 -0.419047 1.000000
v 0.706272 1.832144 0.706272
v 1.000000 -0.419047 -1.000000
v 0.706272 1.832144 -0.706272
v -1.000000 1.493043 1.000000
v -1.000000 1.493043 -1.000000
v 1.000000 1.493043 -1.000000
v 1.000000 1.493043 1.000000
vn -1.0000 -0.0000 -0.0000
vn -0.0000 -0.0000 -1.0000
vn 1.0000 -0.0000 -0.0000
vn -0.0000 -0.0000 1.0000
vn -0.0000 -1.0000 -0.0000
vn -0.0000 1.0000 -0.0000
vn -0.7559 0.6547 -0.0000
vn -0.0000 0.6547 -0.7559
vn 0.7559 0.6547 -0.0000
vn -0.0000 0.6547 0.7559
vt 0.310105 0.254359
vt 0.993969 1.004289
vt 0.504409 -0.000918
vt 0.311968 0.747331
vt 0.999849 0.000345
vt 0.498584 1.000978
vt 0.185384 0.257458
vt 0.506354 1.000601
vt -0.000158 0.000474
vt 0.180763 0.744984
vt 0.508659 -0.001201
vt -0.001434 1.000002
vt 0.400352 0.130350
vt 0.399684 0.867667
vt 0.096586 0.868237
vt 0.099592 0.134890
s 0
f 1/1/1 9/13/1 10/14/1 3/4/1
f 3/4/2 10/14/2 11/15/2 7/10/2
f 7/10/3 11/15/3 12/16/3 5/7/3
f 5/7/4 12/16/4 9/13/4 1/1/4
f 3/4/5 7/10/5 5/7/5 1/1/5
f 8/11/6 4/5/6 2/2/6 6/8/6
f 2/3/7 4/6/7 10/14/7 9/13/7
f 4/6/8 8/12/8 11/15/8 10/14/8
f 8/12/9 6/9/9 12/16/9 11/15/9
f 6/9/10 2/3/10 9/13/10 12/16/10
